<?xml version="1.0" encoding="UTF-8"?>
<svg id="_レイヤー_2" data-name="レイヤー 2" xmlns="http://www.w3.org/2000/svg" viewBox="0 0 629.7 179.98">
  <defs>
    <style>
      .cls-1 {
        stroke-width: 2px;
      }

      .cls-1, .cls-2 {
        fill: none;
        stroke: #79433b;
        stroke-miterlimit: 10;
      }

      .cls-3 {
        fill: #a92224;
      }

      .cls-4 {
        fill: #fff;
      }

      .cls-5 {
        fill: #e97124;
      }

      .cls-6 {
        fill: #391a16;
      }
    </style>
  </defs>
  <g id="_レイヤー_1-2" data-name="レイヤー 1">
    <path class="cls-1" d="M330.29,14.91c2.95-3.94,7.46-5.4,13.21-4.92"/>
    <path class="cls-1" d="M346.38,5.84c.37,2.67-.15,5.47-1.4,8.4-.26.61-.55,1.22-.87,1.84"/>
    <path class="cls-1" d="M333.81,10.45c-3.64-7.93,4.4-12.65,11.67-6.91"/>
    <path class="cls-1" d="M334.19,5.66c4.09.76,8.14,2.77,11,4.23,2.6,1.3,4.15,3.11,4.96,5.27,1.23,4.79-3.62,9.49-9.52,7.02"/>
    <path class="cls-1" d="M337.9,11.23c-1.78,5.11-1.46,6.38.97,9.6"/>
    <path class="cls-1" d="M329.28,17.07c2.31,6.7,8.02,8.88,13.42,1.04"/>
    <path class="cls-1" d="M332.22,5.81c-8.73,4.76-5.44,12.22,3.06,10.16"/>
    <path class="cls-1" d="M349.17,16.27c-5.93,1.59-7.91,1.29-14.04-4.42"/>
    <path class="cls-1" d="M338.95,9.03c3.28-4.22,6.94-6.02,11.44-2.54,2.8,2.75,2.78,5.61.91,8.53"/>
    <g>
      <path class="cls-2" d="M435.74,18.85c1.28-1.84,3.24-2.52,5.74-2.29"/>
      <path class="cls-2" d="M442.72,14.62c.16,1.25-.06,2.56-.61,3.92-.11.28-.24.57-.38.86"/>
      <path class="cls-2" d="M437.27,16.77c-1.58-3.7,1.91-5.91,5.07-3.22"/>
      <path class="cls-2" d="M437.43,14.53c1.78.36,3.54,1.29,4.78,1.98,1.13.61,1.8,1.45,2.15,2.46.54,2.24-1.57,4.43-4.13,3.27"/>
      <path class="cls-2" d="M439.04,17.13c-.77,2.38-.63,2.98.42,4.48"/>
      <path class="cls-2" d="M435.3,19.85c1,3.13,3.49,4.15,5.83.49"/>
      <path class="cls-2" d="M436.57,14.6c-3.79,2.22-2.36,5.71,1.33,4.75"/>
      <path class="cls-2" d="M443.94,19.49c-2.58.74-3.44.6-6.1-2.07"/>
      <path class="cls-2" d="M439.5,16.1c1.42-1.97,3.02-2.81,4.97-1.18,1.22,1.29,1.21,2.62.4,3.98"/>
    </g>
    <g>
      <path class="cls-2" d="M443.93,34.12c1.28-1.84,3.24-2.52,5.74-2.29"/>
      <path class="cls-2" d="M450.91,29.89c.16,1.25-.06,2.56-.61,3.92-.11.28-.24.57-.38.86"/>
      <path class="cls-2" d="M445.46,32.04c-1.58-3.7,1.91-5.91,5.07-3.22"/>
      <path class="cls-2" d="M445.62,29.8c1.78.36,3.54,1.29,4.78,1.98,1.13.61,1.8,1.45,2.15,2.46.54,2.24-1.57,4.43-4.13,3.27"/>
      <path class="cls-2" d="M447.23,32.41c-.77,2.38-.63,2.98.42,4.48"/>
      <path class="cls-2" d="M443.49,35.13c1,3.13,3.49,4.15,5.83.49"/>
      <path class="cls-2" d="M444.76,29.87c-3.79,2.22-2.36,5.71,1.33,4.75"/>
      <path class="cls-2" d="M452.13,34.76c-2.58.74-3.44.6-6.1-2.07"/>
      <path class="cls-2" d="M447.69,31.38c1.42-1.97,3.02-2.81,4.97-1.18,1.22,1.29,1.21,2.62.4,3.98"/>
    </g>
    <g>
      <path class="cls-6" d="M201.84,37.58c-1.16-7.32-1.38-15.29-2.37-19.83,0,0,5.61-1.01,5.63-.91.65,3.9,1.25,13.68,2.05,19.75.75,5.82,1.66,7.52,2.4,9.61.2-.76,1.86-6.05,1.86-6.05l3.57,4.93s-2.44,9.9-4.38,10.41c-3.33.94-6.57-4.1-8.76-17.9ZM236.51,50.11l-5.99-.8c.57-.68,3.18-3.37,3.68-4.18-1.04-.6-1.48-.72-1.95-.77-.56,2.72-2.34,4.72-4.82,5.34-4.23,1.03-7.8-1.19-8.27-4.92-.25-1.94.67-4.17,3.79-5.38.94-.4,2.12-.59,3.28-.68-.21-1.49-.6-2.89-.99-4.29-.97.25-1.86.39-2.55.53-2.7.51-5.12.19-7.03-.89l1.83-5.49c1.16.68,2.45.97,4.17.67.78-.16,1.52-.31,2.2-.46-.31-2.23-.45-4.15-.31-5.71l5.41.46s-.01-.05.04-.06l-4.77-1.82c.04-.06,1.8-2.16,1.89-2.23-2.51.47-6.83,1.77-10.13,2.87l-.97-5.67c2.78-.88,5.53-1.66,8-2.07,5.68-1.18,8.6-.66,9.19,2.95.28,1.83-1.08,4.16-2.03,5.48,3.02,1.52,4.8,2.48,4.94,3.88.28,2.6-1.93,4.49-4.68,5.77.54,2.13,1.21,4.09,1.46,5.32.04.2.08.39.12.59,4.61.58,7.89,2.6,8.17,5.66.24,2.4-2.25,4.65-3.68,5.92ZM226.84,43.38c-.55-.19-1.33-.24-2.15-.01-.63.18-1.06.58-.81,1.24.07.34.72.77,1.5.61.98-.2,1.43-1.22,1.46-1.83Z"/>
      <path class="cls-6" d="M287.92,30.01l1.09,6.17c-3.17,3.44-7.76,6.68-12.62,7.28-5.81.65-7.81-3.07-11.15-8.2-2.23.33-4.31,3.51-5.87,4.98-.36,1.39-.64,3.08-1.04,4.58l-5.53-1.44c4.43-18.05,6.74-29.75,11.92-37.07l4.58,3c-3.24,4.66-5.71,12.4-8.3,22.92,2.6-2.08,4.23-2.9,4.77-3,4.24-.84,5.44,8.39,9.93,8.58,2.58.14,8.41-4.28,12.22-7.79Z"/>
      <path class="cls-6" d="M334.91,31.14c.28,0,.43.13.47.38.27,1.9-5.94,10.2-11.37,10.42-2.8.15-7.25-1.4-9.8-3.5-.65,3-2.15,4.55-4.3,4.35-3.55-.3-6.9-3.85-7.01-9.75-.1-5.25,3-6.6,5.55-5.85.2.05.4.15.55.2.3-1.8.1-5.6,0-9.15-2.9-.45-6-1.45-8.1-3.45l2.8-5c1.95,1.55,3.65,2.35,5.4,2.7.25-2.25.95-6.55,3.2-9.55l4.85,2.45c-.25.3-.45.6-.6.95,2.1,2,5.75,4.65,5.85,6.15.2,4.2-4.05,5.65-7.85,5.9.05,4.05.3,9.2.16,12.8,0,.35,0,.65,0,1,2.5,2.1,5.65,4.1,9.05,3.95,5.05-.2,8.74-4.93,11.15-5.01ZM309.06,34.75c-.5-.8-.9-2-1.5-2-.3,0-.45.4-.4.95,0,1.8,1.1,2.9,1.65,2.85.3-.05.3-.75.25-1.8ZM314.65,12.6c.75-.1,1.45-.2,1.9-.35-.3-.55-.85-1.3-1.45-2.05-.2.75-.35,1.55-.45,2.4Z"/>
      <path class="cls-6" d="M350.84,10.8l5.5-.76c.17,1.83,3.1,4.63,13.01,5.57,1.64.16,3.45.19,5.26.12.58-3.76,1.76-7.06,2.71-8.52l4.73,1.98c.17.27-.31,1.63-.44,1.87,1.49,1.2,3.17,2.43,4.29,3.29.57-.14,1.08-.29,1.5-.45l.83,5.81c-2.13.74-5.19,1.19-8.53,1.41-.56,7.63-.15,11.04-1.74,13.89-.04.4-.13.84-.17,1.24-.66,4.05-15.89,32.9-17.02,26.12s9.15-21.83,10.09-23.69c-4.33-.93-5.85-5.36-5.56-8.24.35-3.53,2.98-6.23,6.04-6.13,1,0,1.83.28,2.69.72.08-1.3.1-2.5.17-3.75-1.91-.04-3.71-.12-5.4-.29-14.24-1.32-17.62-6.23-17.97-10.19ZM371.88,29.53c-.13-.16-.28-.23-.48-.25-.45,0-.76.53-.84,1.42-.13,1.34.68,2.23,1.37,2.4.29.13.39.09.45,0,.38-.77.14-2.9-.5-3.57ZM380.33,15.31c.61-.09,1.22-.13,1.78-.22-.5-.5-.96-1-1.41-1.45-.16.59-.26,1.13-.37,1.67Z"/>
      <path class="cls-6" d="M436.24,49.92c-2.74-1.61-5.13-3.71-6.34-6.9-5.14,7.5-10.86,10.66-17.67,9.27-5.72-1.23-9.94-7.25-8.32-15.49.99-5.05,3.83-9.39,9.09-13.6-2.53-.85-4.18-2.05-5.44-3.92l4.15-4.02c.66,1.3,1.61,2.2,3.78,2.78,1.45.39,6.01.26,8.97-.28l-.07,5.8c-1.11.19-2.46.33-3.85.41-6.56,3.81-10.39,8.25-11.48,13.84-1.07,5.45,2.37,8.42,4.36,8.91,6.42,1.57,12.07-4.66,15.98-11.84.17-.88.35-1.77.59-2.74.34-1.21.95-3.02,1.7-5.27l5.25,2.05c-.48,1.38-1.34,3.71-1.56,4.58-1.44,5.52-1.42,9.05,4.43,11.93l-3.58,4.49Z"/>
    </g>
    <g>
      <path class="cls-5" d="M332.02,163.38c72.34-32.69,186.94-69.43,266.14-65.86,10.78.85,21.4,2.36,31.55,6.74,0,0-11.69,26.12-11.69,26.12-5.8-3.48-16.21-5.75-23.69-6.65-24.81-3.05-50.96-1.06-76.19,1.82-37.29,4.53-74.14,12.23-110.57,21.99-24.35,6.59-48.52,14.14-72.21,23.1l-3.34-7.27h0Z"/>
      <path class="cls-5" d="M320.64,146.59c30.66-42.18,158.14-120.87,210.03-127.06,2.64-.28,5.32-.41,7.97-.19l-.25,3.54c-9.77,1.05-19.48,4.98-28.65,8.83-23.89,10.42-46.87,22.91-69.49,35.89-22.75,13.16-45.13,27.05-66.56,42.26-12.79,9.13-25.21,18.81-36.41,29.77-3.65,3.65-7.26,7.36-10.05,11.5l-6.58-4.55h0Z"/>
      <path class="cls-5" d="M332.19,156.74c42.48-37.05,180-85.54,236.92-86.32,5.62-.05,11.33.25,16.76,1.77,0,0-.95,3.42-.95,3.42-5.01-.61-10.34-.25-15.67.32-27.27,3.62-53.77,11.82-80.11,19.67-31.87,10.04-63.47,21.16-94.14,34.46-15.26,6.68-30.27,13.98-44.33,22.85-4.6,2.97-9.18,6.02-13.03,9.68l-5.45-5.86h0Z"/>
      <path class="cls-5" d="M325.98,150.48c38.47-40.95,170.43-102.3,226.85-108.41,5.58-.58,11.27-.82,16.8.18,0,0-.62,3.49-.62,3.49-10.42-.07-21.1,2.94-31.21,5.91-26.33,8.14-51.94,18.61-77.23,29.62-25.43,11.18-50.55,23.17-74.84,36.65-14.5,8.1-28.69,16.8-41.78,26.97-4.28,3.4-8.52,6.87-11.98,10.88l-6-5.29h0Z"/>
    </g>
    <g>
      <path class="cls-5" d="M301.79,174.53C231.12,141.65,120.42,104.75,42.61,106.35c-10.46.43-21.61,1.83-31.21,5.81,0,0-11.4-26.25-11.4-26.25,4.15-1.46,8.53-2.79,12.83-3.62,61.16-11.92,165.96,26.42,223.16,51.08,23.61,10.28,46.79,21.44,69.22,33.93l-3.42,7.23h0Z"/>
      <path class="cls-5" d="M310.14,155.12c-31.11-43.88-141.81-118.04-194.2-132.01-5.12-1.32-10.39-2.33-15.71-2.16,0,0-.21-3.54-.21-3.54,5.8-.95,11.5-.55,17.21.35,50.8,9,114.56,53.41,154.1,86.44,16.53,14.24,32.74,28.3,45.44,46.46,0,0-6.63,4.47-6.63,4.47h0Z"/>
      <path class="cls-5" d="M299.6,166.46c-42.14-38.27-173.16-90.88-230.44-94.27-5.6-.28-11.28-.22-16.76,1.07,0,0-.91-3.43-.91-3.43,5.81-2.17,11.78-2.9,17.87-3.15,57.95-1.28,142.88,35.72,193.31,64.42,15.04,8.66,29.46,17.52,42.44,29.56,0,0-5.51,5.8-5.51,5.8h0Z"/>
      <path class="cls-5" d="M305.33,159.7c-38.01-42.11-163.1-106.94-219.62-115.68-5.53-.81-11.17-1.28-16.74-.51,0,0-.58-3.5-.58-3.5,5.97-1.6,11.97-1.78,18.04-1.45,57.68,4.19,138.43,49.06,185.72,82.44,14.09,10.06,27.54,20.25,39.24,33.48,0,0-6.06,5.22-6.06,5.22h0Z"/>
    </g>
    <g>
      <g>
        <path class="cls-5" d="M300.31,156.44s.06-.12.17-.35c.11-.23.27-.56.52-.97.12-.21.25-.45.4-.67.07-.11.15-.23.23-.36.08-.12.15-.24.28-.42.12-.16.24-.33.36-.5.06-.09.13-.17.19-.26l.1-.13h0c.05-.07-.06.07-.05.05h.01s.02-.04.02-.04l.05-.06c.25-.31.51-.64.79-.97,1.13-1.31,2.59-2.71,4.38-3.86,1.78-1.15,3.89-2.04,6.14-2.49,2.25-.45,4.63-.47,6.85-.17,1.11.15,2.18.38,3.19.65,1.01.27,1.94.6,2.8.92.85.34,1.62.67,2.28,1,.17.08.33.16.48.24.15.08.3.16.44.24.14.08.28.15.41.22.13.07.23.14.34.2.22.13.41.24.58.34.2.12.36.23.5.31.27.17.42.26.42.26l-1.39,1.85s-.14-.09-.42-.26c-.14-.08-.3-.19-.5-.31-.15-.09-.32-.18-.51-.3-.1-.05-.19-.11-.3-.17-.12-.06-.24-.13-.37-.2-.13-.07-.26-.14-.4-.22-.14-.07-.29-.14-.44-.22-.61-.31-1.31-.61-2.08-.92-.78-.29-1.63-.59-2.53-.83-.91-.24-1.87-.44-2.85-.58-1.97-.26-4.04-.24-5.96.14-1.92.39-3.7,1.14-5.24,2.13-1.54.99-2.84,2.23-3.86,3.41-.25.3-.48.6-.71.88l-.04.05-.02.03h-.01s.16-.2.08-.1h0s-.1.14-.1.14c-.06.09-.13.18-.19.26-.13.17-.25.34-.36.5l-.09.12-.04.06-.02.04c-.03.05-.06.11-.1.16-.07.1-.13.2-.19.29-.12.17-.24.39-.34.57-.1.18-.21.35-.27.49-.07.14-.13.26-.17.36-.1.19-.15.3-.15.3l-2.28-.85Z"/>
        <path class="cls-4" d="M298.03,155.58s.07-.14.19-.39c.13-.26.3-.64.58-1.1.13-.23.28-.5.46-.76.09-.14.18-.28.27-.42.09-.15.18-.29.31-.46.12-.16.24-.33.36-.5.06-.09.13-.17.19-.26l.1-.13.08-.1c.27-.34.55-.7.86-1.06,1.24-1.44,2.87-3,4.89-4.3,2.02-1.31,4.45-2.34,7.03-2.85,2.58-.51,5.27-.53,7.75-.2,1.24.17,2.42.42,3.53.72,1.11.29,2.13.65,3.06,1,1.85.73,3.33,1.5,4.32,2.06.25.14.46.27.66.38.2.12.36.23.5.31.27.17.42.26.42.26l-1.39,1.85s-.14-.09-.42-.26c-.14-.08-.3-.19-.5-.31-.17-.1-.37-.21-.58-.34-.11-.06-.22-.13-.34-.2-.13-.07-.27-.14-.41-.22-.14-.08-.29-.15-.44-.24-.16-.08-.32-.15-.48-.24-.66-.33-1.44-.66-2.28-1-.86-.32-1.79-.65-2.8-.92-1.01-.27-2.08-.5-3.19-.65-2.22-.3-4.6-.28-6.85.17-2.25.45-4.36,1.34-6.14,2.49-1.78,1.15-3.24,2.55-4.38,3.86-.28.33-.54.66-.79.97l-.05.06-.02.03h-.01s.09-.11.05-.05h0s-.1.14-.1.14c-.06.09-.13.18-.19.26-.13.17-.25.34-.36.5-.13.17-.2.29-.28.42-.08.12-.16.24-.23.36-.15.22-.28.46-.4.67-.25.42-.41.75-.52.97-.11.23-.17.35-.17.35l-2.28-.85Z"/>
        <path class="cls-3" d="M295.75,154.73s.08-.15.22-.44c.14-.29.34-.72.65-1.23.15-.26.31-.55.51-.86.1-.16.21-.32.31-.48.11-.17.22-.35.34-.5.12-.16.24-.33.36-.5.06-.09.13-.17.19-.26l.1-.13.04-.06.03-.03.06-.07c.3-.36.6-.75.93-1.15,1.35-1.57,3.14-3.29,5.41-4.75,2.26-1.47,5.02-2.63,7.93-3.21,2.91-.58,5.92-.59,8.64-.22,1.36.19,2.66.47,3.87.79,1.21.32,2.32.71,3.33,1.09,2.01.79,3.59,1.61,4.68,2.23.27.16.51.3.73.42.2.12.36.23.5.31.27.17.42.26.42.26l-1.39,1.85s-.14-.09-.42-.26c-.14-.08-.3-.19-.5-.31-.19-.11-.41-.24-.66-.38-.99-.56-2.47-1.34-4.32-2.06-.93-.35-1.95-.71-3.06-1-1.11-.29-2.29-.55-3.53-.72-2.48-.33-5.17-.32-7.75.2-2.58.51-5.01,1.54-7.03,2.85-2.03,1.31-3.65,2.87-4.89,4.3-.31.36-.59.72-.86,1.06l-.08.1-.1.13c-.06.09-.13.18-.19.26-.12.17-.25.34-.36.5-.12.16-.22.31-.31.46-.09.15-.18.29-.27.42-.18.26-.32.53-.46.76-.28.47-.46.85-.58,1.1-.13.26-.19.39-.19.39l-2.28-.85Z"/>
        <path class="cls-4" d="M293.47,153.88s.08-.17.24-.49c.16-.32.38-.79.72-1.36.16-.29.34-.6.57-.96.11-.18.23-.36.36-.55.12-.19.26-.4.37-.54.12-.16.24-.33.36-.5.06-.09.13-.17.19-.26l.1-.13.08-.11.03-.04.06-.07c.32-.39.65-.81,1.01-1.24,1.46-1.69,3.41-3.58,5.93-5.2,2.5-1.62,5.58-2.93,8.82-3.57,3.24-.65,6.56-.66,9.54-.25,1.49.21,2.9.51,4.21.85,1.31.35,2.5.77,3.59,1.18,1.08.43,2.05.85,2.89,1.27.21.1.41.2.61.3.19.1.38.2.55.29.18.09.35.19.51.27.16.09.33.19.48.27.3.17.56.33.8.46.2.12.36.23.5.31.27.17.42.26.42.26l-1.39,1.85s-.14-.09-.42-.26c-.14-.08-.3-.19-.5-.31-.21-.12-.45-.26-.73-.42-1.09-.62-2.66-1.44-4.68-2.23-1.01-.38-2.12-.77-3.33-1.09-1.21-.32-2.5-.6-3.87-.79-2.73-.37-5.73-.36-8.64.22-2.91.58-5.67,1.74-7.93,3.21-2.27,1.47-4.06,3.19-5.41,4.75-.33.39-.64.78-.93,1.15l-.06.07-.03.03-.04.06-.1.13c-.06.09-.13.18-.19.26-.13.17-.25.34-.36.5-.12.16-.23.33-.34.5-.11.17-.21.33-.31.48-.21.31-.37.6-.51.86-.31.52-.51.94-.65,1.23-.14.29-.22.44-.22.44l-2.28-.85Z"/>
        <path class="cls-5" d="M291.19,153.02s.09-.19.26-.54c.09-.18.19-.39.32-.65.13-.26.29-.53.47-.84.18-.31.37-.65.63-1.05.13-.2.26-.4.4-.61.07-.11.14-.21.21-.32l.05-.08.04-.06.09-.12c.12-.16.24-.33.36-.5.06-.09.13-.17.19-.26l.1-.13.11-.15.03-.04.06-.08c.34-.42.69-.87,1.08-1.33,1.57-1.82,3.69-3.87,6.44-5.65,2.74-1.78,6.15-3.23,9.72-3.93,3.57-.71,7.2-.72,10.43-.28,1.62.22,3.14.55,4.54.92,1.41.37,2.69.82,3.86,1.26,1.15.46,2.2.91,3.09,1.35.22.11.44.22.65.32.2.11.4.21.59.31.19.1.37.2.54.29.18.1.36.2.52.3.32.19.61.36.87.51.2.12.36.23.5.31.27.17.42.26.42.26l-1.39,1.85s-.14-.09-.42-.26c-.14-.08-.3-.19-.5-.31-.23-.14-.5-.29-.8-.46-.15-.09-.31-.18-.48-.27-.16-.09-.33-.18-.51-.27-.18-.09-.36-.19-.55-.29-.2-.1-.4-.2-.61-.3-.83-.42-1.81-.84-2.89-1.27-1.09-.41-2.28-.83-3.59-1.18-1.31-.35-2.72-.65-4.21-.85-2.98-.4-6.3-.39-9.54.25-3.24.64-6.32,1.95-8.82,3.57-2.51,1.62-4.46,3.51-5.93,5.2-.36.43-.69.85-1.01,1.24l-.06.07-.03.04-.08.11-.1.13c-.06.09-.13.18-.19.26-.13.17-.25.34-.36.5-.11.15-.25.36-.37.54-.12.19-.24.37-.36.55-.24.35-.41.67-.57.96-.34.57-.56,1.04-.72,1.36-.16.32-.24.49-.24.49l-2.28-.85Z"/>
      </g>
      <g>
        <path class="cls-5" d="M346.26,145.43s-.05.22-.12.6c-.09.38-.25.92-.53,1.56-.32.62-.71,1.36-1.32,2.07-.6.72-1.34,1.44-2.19,2.09-1.72,1.29-3.82,2.27-5.49,2.84-.39.12-.76.24-1.08.34-.08.03-.16.05-.23.07-.09.02-.19.05-.27.07-.18.04-.34.08-.48.12-.58.15-.91.23-.91.23l-.66-2.16s.33-.08.91-.23c.15-.04.31-.08.48-.12.09-.02.18-.04.27-.07.06-.02.13-.04.19-.06.27-.09.56-.18.9-.28,1.5-.5,3.34-1.37,4.78-2.46.72-.54,1.31-1.14,1.79-1.71.48-.57.78-1.13,1.02-1.6.2-.48.33-.87.39-1.15.05-.28.09-.43.09-.43l2.44.29Z"/>
        <path class="cls-4" d="M348.7,145.72s-.06.28-.15.77c-.11.49-.32,1.17-.67,1.96-.39.78-.89,1.68-1.61,2.54-.72.86-1.6,1.72-2.59,2.47-1.99,1.5-4.35,2.59-6.2,3.21-.46.14-.88.27-1.25.39-.09.03-.18.06-.27.08-.09.02-.19.05-.27.07-.18.04-.34.08-.48.12-.58.15-.91.23-.91.23l-.66-2.16s.33-.08.91-.23c.15-.04.31-.08.48-.12.09-.02.18-.04.27-.07.07-.02.15-.05.23-.07.32-.1.68-.21,1.08-.34,1.67-.56,3.77-1.54,5.49-2.84.85-.65,1.59-1.37,2.19-2.09.61-.72,1-1.45,1.32-2.07.28-.64.44-1.18.53-1.56.07-.38.12-.6.12-.6l2.44.29Z"/>
        <path class="cls-3" d="M351.14,146.02s-.07.34-.18.93c-.13.59-.39,1.42-.81,2.37-.46.93-1.06,2-1.91,3.01-.84,1.01-1.86,2-2.98,2.86-2.27,1.71-4.89,2.91-6.92,3.59-.52.16-1,.31-1.42.44-.11.03-.21.06-.31.09-.09.02-.19.05-.27.07-.18.04-.34.08-.48.12-.58.15-.91.23-.91.23l-.66-2.16s.33-.08.91-.23c.15-.04.31-.08.48-.12.09-.02.18-.04.27-.07.09-.03.18-.06.27-.08.37-.12.79-.25,1.25-.39,1.85-.62,4.21-1.71,6.2-3.21.99-.75,1.87-1.61,2.59-2.47.73-.86,1.22-1.76,1.61-2.54.35-.79.56-1.48.67-1.96.1-.49.15-.77.15-.77l2.44.29Z"/>
        <path class="cls-4" d="M353.59,146.31s-.08.4-.21,1.1c-.16.69-.45,1.67-.95,2.78-.53,1.09-1.24,2.33-2.2,3.48-.96,1.16-2.12,2.28-3.38,3.24-2.54,1.92-5.43,3.23-7.63,3.97-.58.19-1.12.35-1.6.49-.12.04-.23.07-.35.1-.09.02-.19.05-.27.07-.17.04-.34.08-.48.12-.58.15-.91.23-.91.23l-.66-2.16s.33-.08.91-.23c.15-.04.31-.08.48-.12.09-.02.18-.04.27-.07.1-.03.2-.06.31-.09.42-.13.9-.28,1.42-.44,2.03-.68,4.65-1.88,6.92-3.59,1.13-.86,2.14-1.85,2.98-2.86.85-1.01,1.45-2.08,1.91-3.01.42-.95.68-1.78.81-2.37.12-.59.18-.93.18-.93l2.44.29Z"/>
        <path class="cls-5" d="M356.03,146.6s-.08.46-.24,1.26c-.18.8-.52,1.92-1.09,3.19-.6,1.24-1.41,2.65-2.5,3.95-1.08,1.3-2.37,2.55-3.78,3.62-2.81,2.13-5.97,3.55-8.34,4.35-.64.21-1.24.39-1.77.55-.13.04-.26.08-.38.11-.09.02-.19.05-.27.07-.18.04-.34.08-.48.12-.58.15-.91.23-.91.23l-.66-2.16s.33-.08.91-.23c.15-.04.31-.08.48-.12.09-.02.18-.04.27-.07.11-.03.23-.07.35-.1.48-.14,1.02-.31,1.6-.49,2.2-.74,5.09-2.05,7.63-3.97,1.27-.96,2.42-2.08,3.38-3.24.97-1.16,1.67-2.39,2.2-3.48.49-1.11.79-2.09.95-2.78.14-.7.21-1.1.21-1.1l2.44.29Z"/>
      </g>
      <g>
        <path class="cls-5" d="M327.39,128.34s.2.13.55.35c.18.11.39.24.63.4.24.15.5.37.79.59.14.11.3.22.45.34.08.06.16.12.24.18.07.06.14.13.21.2.29.26.6.54.92.82l.12.11s.08.07.13.12c.09.1.18.19.28.29.19.2.37.4.56.6.19.2.38.4.57.61l.14.15.04.04h0c-.18-.19-.05-.04-.09-.09h0s0,.01,0,.01l.03.04.14.17c.18.24.33.51.46.79.12.29.23.6.3.91.15.64.18,1.32.16,1.92-.03.6-.11,1.15-.17,1.44-.09.44-.15.7-.15.7l-2.42-.43s.05-.25.14-.68c.03-.18.11-.65.12-1.11.02-.46-.01-.96-.11-1.37-.05-.2-.11-.38-.17-.53-.07-.14-.14-.27-.22-.37-.02-.02-.04-.05-.06-.07v-.02s-.02,0-.02,0h0c.07.07-.15-.17.15.16h0s-.04-.05-.04-.05l-.14-.15c-.19-.2-.38-.4-.57-.61-.19-.2-.38-.4-.56-.6-.09-.1-.19-.2-.28-.29-.02-.02-.05-.05-.07-.07l-.05-.04-.1-.09c-.27-.23-.53-.46-.78-.68-.06-.06-.12-.11-.18-.17-.07-.05-.14-.1-.21-.16-.14-.1-.27-.2-.4-.3-.25-.19-.48-.38-.69-.52-.21-.13-.39-.24-.54-.34-.3-.19-.47-.3-.47-.3l1.31-1.9Z"/>
        <path class="cls-4" d="M328.7,126.44s.23.14.63.4c.2.13.44.28.72.45.28.18.56.42.89.66.16.12.33.25.5.38.09.07.18.13.27.2.08.07.17.15.25.22.34.3.7.62,1.06.95.19.15.37.35.56.55.19.2.37.4.56.6.19.2.38.4.57.61l.14.15.04.04h0c-.06-.06-.01,0-.03-.02h0s.01.02.01.02l.06.07.22.27c.28.38.51.79.71,1.2.19.42.33.86.43,1.29.2.87.24,1.73.21,2.47-.03.74-.13,1.36-.21,1.77-.1.46-.15.72-.15.72l-2.42-.43s.05-.25.15-.7c.05-.29.14-.84.17-1.44.03-.6-.01-1.28-.16-1.92-.08-.32-.18-.62-.3-.91-.13-.28-.29-.55-.46-.79l-.14-.17-.03-.04h0s0-.01,0-.01c.04.04-.09-.1.09.1h0s-.04-.05-.04-.05l-.14-.15c-.19-.2-.38-.41-.57-.61-.19-.2-.38-.4-.56-.6-.09-.1-.19-.2-.28-.29-.05-.05-.09-.09-.13-.12l-.12-.11c-.32-.28-.63-.56-.92-.82-.07-.07-.14-.13-.21-.2-.08-.06-.16-.12-.24-.18-.16-.12-.31-.23-.45-.34-.29-.21-.55-.43-.79-.59-.24-.15-.46-.29-.63-.4-.35-.22-.55-.35-.55-.35l1.31-1.9Z"/>
        <path class="cls-3" d="M330,124.54s.26.16.71.44c.23.14.5.31.81.51.31.2.63.46.99.73.18.14.37.28.56.42.1.07.19.15.29.22.09.08.19.17.29.26.38.35.79.71,1.21,1.09.22.19.4.38.58.58.19.2.37.4.56.6.19.2.38.4.57.61l.14.15.04.04.05.05.02.02.08.09.3.38c.38.52.7,1.06.95,1.62.25.56.43,1.13.56,1.68.25,1.1.3,2.14.26,3.01-.04.88-.15,1.58-.25,2.1-.1.47-.16.74-.16.74l-2.42-.43s.05-.26.15-.72c.07-.41.17-1.03.21-1.77.03-.74,0-1.59-.21-2.47-.1-.43-.25-.87-.43-1.29-.19-.42-.43-.83-.71-1.2l-.22-.27-.06-.07v-.02s-.02,0-.02,0c.01.01-.03-.04.03.03h0s-.04-.05-.04-.05l-.14-.15c-.19-.2-.38-.4-.57-.61-.19-.2-.38-.4-.56-.6-.19-.2-.37-.4-.56-.55-.37-.33-.73-.65-1.06-.95-.08-.08-.17-.15-.25-.22-.09-.07-.18-.14-.27-.2-.17-.13-.34-.26-.5-.38-.33-.24-.61-.48-.89-.66-.28-.18-.52-.33-.72-.45-.4-.25-.63-.4-.63-.4l1.31-1.9Z"/>
        <path class="cls-4" d="M331.31,122.64s.29.18.79.49c.25.16.55.35.9.57.34.22.69.51,1.09.8.2.15.4.3.61.47.11.08.21.16.32.25.11.09.21.19.32.29.43.39.88.8,1.35,1.22l.18.16c.06.05.12.11.16.15.09.1.18.19.28.29.19.2.37.4.56.6.19.2.38.4.57.61l.14.15.04.04.11.12.02.03.1.12.38.48c.48.65.88,1.34,1.2,2.04.31.7.53,1.39.69,2.06.31,1.34.35,2.55.31,3.56-.05,1.01-.17,1.8-.29,2.43-.1.48-.16.76-.16.76l-2.42-.43s.06-.27.16-.74c.1-.52.21-1.23.25-2.1.04-.87,0-1.91-.26-3.01-.13-.55-.32-1.12-.56-1.68-.26-.56-.57-1.11-.95-1.62l-.3-.38-.08-.09-.02-.02-.05-.05-.04-.04-.14-.15c-.19-.2-.38-.4-.57-.61-.19-.2-.38-.4-.56-.6-.19-.2-.36-.39-.58-.58-.42-.38-.82-.74-1.21-1.09-.1-.09-.19-.17-.29-.26-.1-.08-.2-.15-.29-.22-.19-.15-.38-.29-.56-.42-.36-.27-.68-.53-.99-.73-.31-.2-.59-.37-.81-.51-.45-.28-.71-.44-.71-.44l1.31-1.9Z"/>
        <path class="cls-5" d="M332.61,120.74s.32.2.87.54c.27.17.61.39.99.63.38.25.75.55,1.19.87.21.16.44.33.67.51.11.09.23.18.35.27.12.1.24.21.36.32.48.43.98.88,1.5,1.36l.19.18.1.09.07.07c.09.1.18.19.28.29.19.2.37.4.56.6.19.2.38.4.57.61l.14.15.04.04.18.19.03.04.12.14c.16.19.31.38.46.58.59.79,1.07,1.62,1.45,2.45.37.83.63,1.65.82,2.44.36,1.57.41,2.97.36,4.11-.05,1.15-.19,2.02-.33,2.76-.1.49-.16.77-.16.77l-2.42-.43s.06-.27.16-.76c.12-.63.24-1.42.29-2.43.04-1.01,0-2.23-.31-3.56-.16-.67-.38-1.36-.69-2.06-.32-.69-.72-1.38-1.2-2.04l-.38-.48-.1-.12-.02-.03-.11-.12-.04-.04-.14-.15c-.19-.2-.38-.41-.57-.61-.19-.2-.38-.4-.56-.6-.09-.1-.19-.2-.28-.29-.04-.05-.1-.1-.16-.15l-.18-.16c-.47-.42-.92-.84-1.35-1.22-.11-.1-.22-.19-.32-.29-.11-.08-.22-.17-.32-.25-.21-.16-.42-.32-.61-.47-.4-.29-.74-.58-1.09-.8-.35-.22-.65-.41-.9-.57-.5-.31-.79-.49-.79-.49l1.31-1.9Z"/>
      </g>
      <g>
        <path class="cls-5" d="M315.43,155.68s-.16.03-.44.08c-.14.03-.31.06-.51.09-.2.03-.42.05-.66.08-.12.02-.25.03-.38.05-.12,0-.24.02-.36.03-.26.02-.47.05-.88.05-.18,0-.37,0-.56.01-.09,0-.19,0-.28,0h-.02c.21,0,.05,0,.1,0h-.01s-.03,0-.03,0h-.06s-.13,0-.13,0c-.35,0-.7-.02-1.05-.03h-.53c-.18-.02-.35-.04-.52-.05-.34-.03-.68-.05-1-.08-.34-.02-.6-.07-.88-.1-.27-.03-.53-.07-.76-.1-.06,0-.12-.02-.18-.02-.07-.01-.14-.03-.2-.04-.13-.03-.26-.05-.37-.07-.23-.04-.44-.08-.6-.12-.34-.06-.53-.1-.53-.1l.51-2.19s.19.04.53.1c.17.03.37.07.6.12.12.02.24.05.37.07.07.01.13.03.2.04.06,0,.1.01.15.02.2.02.42.05.65.08.24.03.45.07.77.09.3.02.61.05.92.07.16.01.31.03.48.04h.49c.33.02.66.03.98.04h.12s.06,0,.06,0h.03s0,0,0,0h0c-.08,0,.17,0-.17,0h.02c.1,0,.19,0,.28,0,.19,0,.38,0,.56-.01.44,0,.55-.04.76-.05.1,0,.19-.01.28-.02.11-.01.22-.03.32-.04.21-.03.4-.05.57-.07.17-.03.32-.06.44-.08.25-.04.39-.07.39-.07l.53,2.19Z"/>
        <path class="cls-4" d="M315.96,157.87s-.18.03-.5.09c-.16.03-.35.06-.57.1-.22.03-.47.06-.75.1-.14.02-.28.03-.43.05-.14.01-.29.02-.45.03-.31.02-.62.06-1,.06-.18,0-.37,0-.56.01-.09,0-.19,0-.28,0h-.24c-.37-.02-.75-.03-1.13-.03h-.57c-.19-.02-.37-.04-.56-.05-.37-.03-.73-.06-1.09-.08-.36-.02-.68-.08-.99-.11-.31-.04-.61-.08-.88-.11-.56-.08-1.05-.19-1.38-.25-.34-.06-.53-.1-.53-.1l.51-2.19s.19.04.53.1c.17.03.37.07.6.12.12.02.24.05.37.07.07.01.13.03.2.04.06,0,.12.02.18.02.24.03.49.06.76.1.28.03.54.08.88.1.33.02.66.05,1,.08.17.01.34.03.52.04h.53c.35.02.71.03,1.05.04h.13s.06,0,.06,0h.03s0,0,0,0h0s.11,0-.1,0h.02c.1,0,.19,0,.28,0,.19,0,.38,0,.56-.01.41,0,.62-.04.88-.05.12,0,.25-.02.36-.03.13-.02.26-.03.38-.05.24-.03.46-.06.66-.08.2-.04.37-.07.51-.09.28-.05.44-.08.44-.08l.53,2.19Z"/>
        <path class="cls-3" d="M316.5,160.06s-.2.04-.56.1c-.18.03-.39.07-.64.11-.25.03-.53.07-.84.11-.15.02-.31.04-.48.06-.17.01-.35.03-.53.04-.36.03-.76.06-1.11.07-.18,0-.37,0-.56.01-.09,0-.19,0-.28,0h-.11s-.07,0-.07,0h-.15c-.4-.01-.8-.02-1.21-.03-.2,0-.4-.01-.61-.02-.2,0-.4-.03-.6-.04-.4-.03-.79-.06-1.17-.09-.38-.02-.75-.08-1.11-.13-.35-.05-.69-.09-1-.13-.6-.09-1.06-.2-1.4-.26-.34-.06-.53-.1-.53-.1l.51-2.19s.19.04.53.1c.33.06.82.17,1.38.25.27.04.57.07.88.11.31.04.64.09.99.11.35.03.72.05,1.09.08.19.01.37.03.56.04h.57c.38.02.76.03,1.13.04h.24c.1,0,.19,0,.28,0,.19,0,.38,0,.56-.01.38,0,.69-.04,1-.06.15-.01.3-.02.45-.03.15-.02.29-.04.43-.05.27-.04.53-.07.75-.1.22-.04.41-.07.57-.1.32-.06.5-.09.5-.09l.53,2.19Z"/>
        <path class="cls-4" d="M317.03,162.24s-.22.04-.61.11c-.2.03-.43.08-.71.12-.28.04-.59.08-.93.12-.17.02-.35.04-.53.07-.2.02-.4.03-.61.05-.41.03-.91.07-1.23.07-.18,0-.37,0-.56.01-.09,0-.19,0-.28,0h-.14s-.04,0-.04,0h-.08s-.16,0-.16,0c-.42-.01-.85-.02-1.28-.03-.21,0-.43-.01-.64-.02-.21,0-.43-.03-.64-.04-.43-.03-.85-.07-1.25-.1-.39-.02-.83-.09-1.22-.14-.39-.05-.77-.1-1.11-.15-.08-.01-.17-.02-.25-.04-.07-.01-.14-.03-.2-.04-.13-.02-.26-.05-.37-.07-.23-.04-.44-.08-.6-.12-.34-.06-.53-.1-.53-.1l.51-2.19s.19.04.53.1c.34.06.8.16,1.4.26.31.04.64.09,1,.13.35.04.73.11,1.11.13.38.03.77.06,1.17.09.2.01.4.03.6.04.2,0,.4.01.61.02.4,0,.81.02,1.21.03h.15s.07,0,.07,0h.11c.1,0,.19,0,.28,0,.19,0,.38,0,.56-.01.35,0,.75-.04,1.11-.07.18-.01.36-.03.53-.04.17-.02.33-.04.48-.06.31-.04.59-.08.84-.11.25-.04.46-.08.64-.11.35-.06.56-.1.56-.1l.53,2.19Z"/>
        <path class="cls-5" d="M317.56,164.43s-.24.04-.67.12c-.21.04-.47.08-.77.13-.3.04-.64.08-1.01.13-.19.02-.38.05-.58.07-.22.02-.46.04-.7.05-.46.03-1.05.08-1.35.08-.18,0-.37,0-.56.01-.09,0-.19,0-.28,0h-.21s-.04,0-.04,0h-.08s-.17,0-.17,0c-.45-.01-.9-.02-1.36-.03-.23,0-.45-.01-.68-.02-.23,0-.46-.03-.68-.05-.45-.04-.9-.07-1.33-.1-.41-.02-.9-.1-1.33-.15-.44-.06-.85-.12-1.23-.17-.09-.01-.18-.03-.27-.04-.07-.01-.14-.03-.2-.04-.13-.02-.26-.05-.37-.07-.23-.04-.44-.08-.6-.12-.34-.06-.53-.1-.53-.1l.51-2.19s.19.04.53.1c.17.03.37.07.6.12.12.02.24.05.37.07.07.01.13.03.2.04.08.01.16.02.25.04.34.05.72.1,1.11.15.39.05.82.12,1.22.14.41.03.82.06,1.25.1.21.01.43.04.64.04.21,0,.43.01.64.02.43.01.86.02,1.28.03h.16s.08,0,.08,0h.04s.14,0,.14,0c.1,0,.19,0,.28,0,.19,0,.38,0,.56-.01.33,0,.82-.04,1.23-.07.21-.02.41-.03.61-.05.18-.02.36-.04.53-.07.34-.04.65-.08.93-.12.27-.05.51-.09.71-.12.39-.07.61-.11.61-.11l.53,2.19Z"/>
      </g>
      <g>
        <path class="cls-5" d="M293.97,145.71c0-1.48.34-2.91,1-4.24.66-1.32,1.64-2.54,2.86-3.55,2.44-2.04,5.83-3.24,9.13-3.23l-.53-.03,1.42.25c.24.03.45.11.68.17l.67.18c.24.05.39.13.57.19.18.07.35.13.53.19l.14.05.19.09.38.19.77.38-1.17,1.97-.77-.38-.38-.19-.19-.09s-.06-.02-.09-.02c-.12-.03-.24-.07-.35-.11-.12-.04-.19-.09-.41-.14l-.55-.14c-.19-.04-.35-.12-.57-.14-.41-.06-.81-.14-1.22-.21l.88.06c-1.33,0-2.7.24-3.99.7-1.29.46-2.49,1.13-3.47,1.95-.99.82-1.77,1.79-2.28,2.82-.51,1.04-.77,2.14-.78,3.32h-2.46Z"/>
        <path class="cls-4" d="M291.51,145.71c0-1.78.41-3.55,1.22-5.16.8-1.62,1.99-3.08,3.45-4.28,2.91-2.42,6.85-3.82,10.79-3.82h-.18s1.62.27,1.62.27c.27.03.53.13.79.19l.78.21c.27.06.5.16.74.25l.72.26.18.07.19.09.38.19.77.38-1.17,1.97-.77-.38-.38-.19-.19-.09-.14-.05c-.18-.06-.36-.12-.53-.19-.18-.06-.33-.14-.57-.19l-.67-.18c-.23-.05-.43-.14-.68-.17l-1.42-.25.53.03c-3.3,0-6.69,1.2-9.13,3.23-1.22,1.01-2.21,2.23-2.86,3.55-.66,1.33-.99,2.76-1,4.24h-2.46Z"/>
        <path class="cls-3" d="M289.05,145.71c0-2.08.48-4.18,1.44-6.09.95-1.91,2.34-3.61,4.03-5.01,3.37-2.8,7.87-4.4,12.45-4.41h.18s1.82.33,1.82.33c.3.04.6.14.9.22l.9.24c.3.07.6.19.9.3l.9.34.22.09.19.09.38.19.77.38-1.17,1.97-.77-.38-.38-.19-.19-.09-.18-.07-.72-.26c-.24-.09-.47-.19-.74-.25l-.78-.21c-.26-.06-.51-.16-.79-.19l-1.62-.28h.18c-3.94,0-7.88,1.41-10.79,3.83-1.45,1.21-2.64,2.66-3.45,4.28-.81,1.62-1.22,3.38-1.22,5.16h-2.46Z"/>
        <path class="cls-4" d="M286.58,145.71c0-2.39.56-4.82,1.66-7.01,1.09-2.2,2.7-4.15,4.61-5.74,3.84-3.18,8.9-4.98,14.11-4.99h.33s.2.03.2.03l2.02.35c.33.05.67.16,1.01.24l1.01.27c.32.08.7.23,1.06.36.36.14.73.27,1.08.42l.27.11.19.09.38.19.77.38-1.17,1.97-.77-.38-.38-.19-.19-.09-.22-.09-.9-.34c-.3-.11-.6-.24-.9-.3l-.9-.24c-.3-.07-.59-.18-.9-.22l-1.82-.32h-.07s-.11-.01-.11-.01c-4.58,0-9.08,1.61-12.45,4.41-1.69,1.4-3.08,3.1-4.03,5.01-.95,1.9-1.44,4-1.44,6.09h-2.46Z"/>
        <path class="cls-5" d="M284.12,145.71c0-2.69.63-5.45,1.87-7.93,1.24-2.49,3.05-4.69,5.2-6.47,2.15-1.78,4.64-3.17,7.31-4.12,2.67-.95,5.54-1.46,8.47-1.46h.53l.35.06c.74.12,1.48.25,2.22.38.37.05.75.18,1.12.27l1.12.3c.35.08.81.26,1.23.41.43.16.85.32,1.27.49l.31.13.19.09.38.19.77.38-1.17,1.97-.77-.38-.38-.19-.19-.09-.27-.11c-.36-.14-.72-.28-1.08-.42-.36-.13-.74-.28-1.06-.36l-1.01-.27c-.34-.08-.68-.2-1.01-.24l-2.02-.35-.2-.04h-.33c-5.21,0-10.27,1.82-14.11,4.99-1.92,1.59-3.52,3.54-4.61,5.74-1.1,2.19-1.66,4.62-1.66,7.01h-2.46Z"/>
      </g>
      <g>
        <path class="cls-5" d="M320.75,147.17s.14.28.39.76c.12.24.29.53.44.88.15.34.32.73.51,1.15.17.42.33.88.51,1.37.09.24.15.5.23.75.07.26.16.52.22.79.11.53.26,1.09.32,1.65.03.28.1.56.11.84.02.28.04.56.06.85.03,1.13-.06,2.23-.26,3.25-.22,1.01-.55,1.92-.89,2.68-.09.19-.19.36-.27.53-.09.17-.16.34-.24.46-.08.13-.15.25-.21.36-.07.11-.11.21-.22.35-.35.5-.55.79-.55.79l-2.08-1.2s.2-.29.55-.79c.04-.06.11-.15.11-.17.02-.04.04-.08.06-.12.05-.08.1-.17.15-.26.06-.08.12-.23.2-.37.07-.14.15-.29.23-.45.28-.63.55-1.39.74-2.23.17-.85.25-1.79.22-2.75-.02-.24-.03-.49-.05-.73,0-.24-.07-.49-.1-.74-.05-.49-.19-.98-.28-1.45-.05-.24-.14-.47-.2-.7-.07-.23-.12-.46-.2-.68-.17-.44-.31-.86-.47-1.24-.17-.39-.33-.74-.47-1.05-.14-.31-.3-.58-.41-.81-.23-.45-.36-.71-.36-.71l2.2-1.01Z"/>
        <path class="cls-4" d="M322.95,146.17s.15.3.42.82c.13.26.31.57.48.95.16.37.35.79.55,1.25.19.46.36.97.56,1.5.1.27.16.55.25.83.08.28.18.57.25.87.12.6.29,1.21.36,1.84.04.32.11.63.12.95.02.32.04.64.06.96.04,1.28-.07,2.56-.31,3.74-.26,1.17-.64,2.23-1.03,3.12-.1.22-.21.42-.31.62-.1.2-.19.39-.29.55-.1.16-.19.32-.28.46-.09.14-.16.27-.25.4-.35.5-.55.79-.55.79l-2.08-1.2s.2-.29.55-.79c.1-.14.15-.23.22-.35.07-.11.14-.23.21-.36.08-.12.16-.29.24-.46.08-.17.18-.35.27-.53.34-.76.66-1.67.89-2.68.2-1.01.29-2.12.26-3.25-.02-.28-.04-.56-.06-.85-.01-.28-.08-.56-.11-.84-.06-.56-.21-1.11-.32-1.65-.06-.27-.15-.53-.22-.79-.08-.26-.14-.51-.23-.75-.19-.49-.34-.95-.51-1.37-.19-.42-.36-.81-.51-1.15-.15-.34-.32-.63-.44-.88-.25-.49-.39-.76-.39-.76l2.2-1.01Z"/>
        <path class="cls-3" d="M325.16,145.16s.16.32.45.88c.14.28.33.61.51,1.01.18.4.38.85.59,1.34.2.5.39,1.05.61,1.63.1.29.18.6.28.91.09.31.19.63.27.95.14.66.32,1.33.4,2.04.04.35.12.7.13,1.06.02.36.05.72.07,1.08.04,1.44-.08,2.89-.35,4.23-.29,1.34-.73,2.55-1.18,3.56-.12.25-.24.49-.36.71-.12.23-.22.44-.34.64-.12.2-.23.39-.34.56-.1.17-.2.34-.29.46-.35.5-.55.79-.55.79l-2.08-1.2s.2-.29.55-.79c.1-.13.17-.26.25-.4.09-.14.18-.3.28-.46.1-.16.19-.35.29-.55.1-.2.21-.4.31-.62.39-.89.77-1.95,1.03-3.12.24-1.18.34-2.46.31-3.74-.02-.32-.04-.64-.06-.96-.01-.32-.08-.64-.12-.95-.07-.63-.24-1.25-.36-1.84-.07-.3-.17-.59-.25-.87-.09-.28-.16-.56-.25-.83-.2-.53-.37-1.04-.56-1.5-.2-.46-.39-.88-.55-1.25-.17-.37-.35-.68-.48-.95-.27-.52-.42-.82-.42-.82l2.2-1.01Z"/>
        <path class="cls-4" d="M327.36,144.15s.18.34.48.93c.15.3.35.65.54,1.08.19.43.4.91.64,1.44.22.54.43,1.13.66,1.76.11.31.2.65.3.99.09.34.21.68.29,1.04.15.72.35,1.46.44,2.23.05.39.13.77.15,1.17.03.4.05.79.08,1.19.05,1.6-.09,3.22-.39,4.73-.33,1.5-.82,2.87-1.33,4.01-.13.28-.27.55-.4.8-.13.26-.24.49-.39.73-.14.24-.28.46-.4.66-.12.2-.25.4-.33.51-.35.5-.55.79-.55.79l-2.08-1.2s.2-.29.55-.79c.09-.12.18-.28.29-.46.1-.17.22-.36.34-.56.13-.2.23-.41.34-.64.11-.23.24-.46.36-.71.45-1.01.89-2.23,1.18-3.56.27-1.34.39-2.79.35-4.23-.02-.36-.05-.72-.07-1.08-.02-.36-.09-.71-.13-1.06-.08-.71-.26-1.38-.4-2.04-.07-.33-.18-.64-.27-.95-.1-.31-.17-.62-.28-.91-.22-.58-.41-1.13-.61-1.63-.22-.49-.42-.94-.59-1.34-.18-.4-.37-.73-.51-1.01-.29-.56-.45-.88-.45-.88l2.2-1.01Z"/>
        <path class="cls-5" d="M329.56,143.15s.19.36.51.99c.16.32.37.69.58,1.15.2.46.43.97.68,1.54.23.57.46,1.21.71,1.88.12.34.22.7.33,1.06.1.37.23.73.31,1.12.17.78.37,1.58.48,2.43.05.42.14.84.16,1.28.03.44.06.87.09,1.31.05,1.76-.09,3.55-.43,5.22-.36,1.67-.9,3.19-1.47,4.45-.15.31-.3.61-.44.89-.15.28-.27.54-.44.82-.16.27-.32.52-.46.76-.07.12-.14.23-.21.33-.08.12-.11.16-.15.23-.35.5-.55.79-.55.79l-2.08-1.2s.2-.29.55-.79c.08-.11.2-.31.33-.51.12-.2.26-.42.4-.66.15-.24.26-.48.39-.73.13-.25.27-.52.4-.8.51-1.14,1-2.5,1.33-4.01.3-1.5.44-3.13.39-4.73-.03-.4-.05-.8-.08-1.19-.02-.4-.1-.78-.15-1.17-.09-.78-.28-1.51-.44-2.23-.08-.36-.2-.7-.29-1.04-.1-.34-.19-.67-.3-.99-.23-.62-.44-1.22-.66-1.76-.23-.53-.45-1.01-.64-1.44-.19-.43-.39-.78-.54-1.08-.31-.59-.48-.93-.48-.93l2.2-1.01Z"/>
      </g>
      <g>
        <path class="cls-5" d="M307.63,170.33s-.07-.02-.21-.06c-.14-.04-.33-.09-.58-.17-.5-.16-1.22-.43-2.02-.85-.81-.42-1.69-1.01-2.51-1.74-.81-.73-1.55-1.61-2.07-2.57-.27-.47-.48-.97-.64-1.46-.17-.5-.27-1-.34-1.49-.12-.99-.07-1.94.09-2.77.05-.21.09-.41.13-.59.04-.19.1-.37.15-.54.02-.08.05-.17.07-.24.02-.07.05-.14.07-.2.04-.13.08-.25.12-.36.24-.59.38-.92.38-.92l2.3.8s-.14.33-.38.91c-.02.08-.05.16-.08.26-.02.05-.03.09-.05.14-.02.05-.04.13-.06.2-.04.14-.09.29-.12.44-.03.15-.07.31-.11.48-.13.66-.16,1.4-.07,2.14.05.37.12.74.25,1.11.12.37.27.74.48,1.1.39.72.96,1.4,1.61,1.98.65.58,1.36,1.06,2.01,1.39.65.34,1.22.56,1.62.68.2.07.35.11.46.14.11.03.16.05.16.05l-.66,2.16Z"/>
        <path class="cls-4" d="M306.97,172.48s-.09-.02-.25-.07c-.17-.04-.41-.11-.71-.21-.61-.2-1.47-.52-2.43-1.03-.97-.5-2.02-1.2-3.01-2.08-.98-.89-1.89-1.96-2.54-3.15-.34-.59-.6-1.21-.8-1.83-.21-.62-.34-1.26-.43-1.87-.16-1.24-.08-2.41.1-3.41.05-.25.11-.49.16-.71.05-.23.12-.44.18-.64.05-.2.12-.38.18-.55.06-.17.11-.32.16-.45.25-.59.39-.93.39-.93l2.3.8s-.14.34-.38.92c-.04.11-.08.23-.12.36-.02.06-.05.13-.07.2-.02.07-.05.16-.07.24-.04.17-.11.35-.15.54-.04.19-.08.39-.13.59-.16.83-.21,1.78-.09,2.77.07.49.17,1,.34,1.49.16.5.37.99.64,1.46.52.95,1.26,1.83,2.07,2.57.82.73,1.7,1.32,2.51,1.74.81.42,1.52.69,2.02.85.25.09.45.14.58.17.14.04.21.06.21.06l-.66,2.16Z"/>
        <path class="cls-3" d="M306.31,174.64s-.1-.03-.3-.08c-.2-.05-.48-.13-.84-.25-.71-.23-1.72-.61-2.84-1.2-1.12-.58-2.35-1.4-3.51-2.43-1.15-1.04-2.22-2.31-3.01-3.73-.8-1.41-1.29-2.97-1.48-4.45-.19-1.48-.1-2.88.12-4.04.22-1.16.54-2.09.79-2.76.25-.6.39-.94.39-.94l2.3.8s-.14.34-.39.93c-.05.14-.1.29-.16.45-.06.16-.12.34-.18.55-.05.2-.12.41-.18.64-.05.23-.1.46-.16.71-.19.99-.26,2.17-.1,3.41.08.62.21,1.25.43,1.87.21.62.47,1.24.8,1.83.65,1.19,1.56,2.26,2.54,3.15.99.88,2.05,1.58,3.01,2.08.96.51,1.82.83,2.43,1.03.3.1.55.17.71.21.16.05.25.07.25.07l-.66,2.16Z"/>
        <path class="cls-4" d="M305.66,176.8s-.12-.03-.34-.09c-.23-.06-.56-.15-.96-.29-.82-.27-1.96-.7-3.24-1.37-1.28-.67-2.68-1.59-4.01-2.78-1.32-1.19-2.56-2.66-3.47-4.31-.93-1.65-1.51-3.47-1.73-5.2-.22-1.73-.11-3.35.14-4.67.07-.33.14-.64.21-.94.07-.3.16-.57.23-.83.04-.13.07-.25.11-.38.04-.13.09-.25.13-.37.09-.24.16-.45.23-.65.25-.61.4-.95.4-.95l2.3.8s-.14.34-.39.94c-.25.67-.57,1.6-.79,2.76-.22,1.16-.31,2.56-.12,4.04.19,1.48.68,3.04,1.48,4.45.78,1.42,1.85,2.69,3.01,3.73,1.16,1.03,2.39,1.85,3.51,2.43,1.12.59,2.12.97,2.84,1.2.36.12.64.2.84.25.2.05.3.08.3.08l-.66,2.16Z"/>
        <path class="cls-5" d="M305,178.96s-.14-.04-.39-.11c-.26-.07-.63-.17-1.09-.32-.93-.3-2.21-.78-3.65-1.54-1.44-.75-3.01-1.78-4.51-3.12-1.49-1.34-2.89-3-3.94-4.89-1.06-1.88-1.73-3.97-1.97-5.95-.25-1.98-.13-3.81.16-5.31.07-.37.15-.72.23-1.06.08-.33.18-.64.26-.93.04-.15.08-.28.13-.43.05-.15.1-.29.15-.43.1-.27.19-.52.27-.75.25-.61.4-.96.4-.96l2.3.8s-.14.35-.4.95c-.07.2-.15.41-.23.65-.04.12-.08.24-.13.37-.04.13-.07.25-.11.38-.07.26-.16.54-.23.83-.07.3-.13.62-.21.94-.25,1.33-.36,2.94-.14,4.67.22,1.73.8,3.55,1.73,5.2.91,1.66,2.15,3.12,3.47,4.31,1.33,1.19,2.73,2.11,4.01,2.78,1.28.67,2.42,1.1,3.24,1.37.41.14.74.23.96.29.22.06.34.09.34.09l-.66,2.16Z"/>
      </g>
      <g>
        <path class="cls-5" d="M332.15,149.58s.18.12.53.35c.34.23.83.58,1.44,1.04,1.19.93,2.86,2.35,4.37,4.3.76.97,1.46,2.07,1.99,3.25.52,1.18.86,2.43.86,3.62,0,.59-.08,1.17-.24,1.72-.04.12-.07.2-.1.3l-.22.51-.24.46c-.09.15-.17.3-.27.45-.75,1.2-1.78,2.29-3.01,3.15-2.45,1.75-5.64,2.46-8.75,2.25-1.55-.1-3.09-.4-4.52-.82-.36-.1-.71-.23-1.06-.33-.33-.12-.65-.23-.96-.34-.07-.02-.17-.07-.27-.1l-.28-.11c-.18-.08-.37-.15-.55-.22l-.14-.06h-.03c-.07-.04.07.02.05,0h-.01s-.05-.03-.05-.03l-.18-.09c-.12-.05-.24-.11-.35-.17-1.84-.96-2.89-2.37-3.48-3.45-.07-.14-.14-.27-.2-.39-.06-.13-.11-.25-.16-.36-.1-.22-.15-.37-.21-.5-.14-.41-.22-.64-.22-.64l2.35-.67s.08.22.22.64c.02.04.04.09.06.14.03.06.03.1.08.2.04.09.08.18.13.28.05.1.1.2.16.3.23.42.54.89.95,1.32.2.22.43.43.69.63.25.2.54.39.87.56.08.05.16.09.25.12l.13.06.03.02h0s-.21-.08-.1-.04h.03s.14.07.14.07c.18.07.36.15.55.22l.28.11c.09.04.2.08.25.1.27.1.54.19.82.29.31.1.63.21.95.3,1.28.37,2.63.63,3.94.72,2.64.17,5.14-.41,7.07-1.78.96-.68,1.78-1.54,2.37-2.49.07-.12.14-.24.21-.36l.19-.36h0c-.03.06.08-.19-.07.15l.02-.04.03-.08.07-.16.13-.3s0-.02,0-.03c0,0,0,0,0-.01,0,0,0,0,.01-.04.1-.34.15-.71.15-1.12,0-.82-.24-1.81-.68-2.79-.44-.98-1.05-1.94-1.72-2.8-1.34-1.73-2.86-3.04-3.95-3.89-.55-.42-1-.74-1.32-.95-.31-.21-.48-.32-.48-.32l1.43-1.82Z"/>
        <path class="cls-4" d="M333.58,147.75s.2.13.57.38c.37.25.9.63,1.56,1.13,1.3,1.01,3.11,2.55,4.79,4.72.84,1.08,1.63,2.32,2.26,3.7.61,1.38,1.03,2.9,1.04,4.46,0,.78-.1,1.56-.33,2.32-.06.18-.12.35-.18.53-.09.2-.17.39-.26.59-.1.19-.19.38-.29.56-.11.18-.21.37-.32.55-.91,1.46-2.16,2.78-3.64,3.82-1.48,1.05-3.2,1.81-4.99,2.25-1.79.45-3.65.57-5.44.46-1.79-.11-3.51-.46-5.11-.92-.4-.11-.79-.25-1.17-.37-.38-.13-.74-.27-1.1-.4-.37-.14-.74-.3-1.11-.45l-.14-.06h-.03s.02,0,0-.01h-.01s-.06-.03-.06-.03l-.24-.11c-.16-.07-.31-.14-.46-.23-.6-.31-1.13-.66-1.61-1.03-.48-.37-.9-.75-1.25-1.15-.73-.78-1.23-1.55-1.6-2.22-.09-.17-.17-.33-.25-.48-.07-.15-.14-.3-.2-.43-.12-.27-.2-.49-.28-.67-.14-.41-.22-.64-.22-.64l2.35-.67s.08.22.22.64c.06.14.11.29.21.5.05.11.1.23.16.36.06.12.13.25.2.39.59,1.08,1.64,2.49,3.48,3.45.11.06.23.12.35.17l.18.09.05.02h.01s-.12-.04-.05-.02h.03s.14.07.14.07c.18.07.36.15.55.22l.28.11c.09.04.19.08.27.1.32.11.64.23.96.34.35.11.7.23,1.06.33,1.44.41,2.97.72,4.52.82,3.1.21,6.3-.5,8.75-2.25,1.22-.86,2.26-1.95,3.01-3.15.09-.15.18-.3.27-.45l.24-.46.22-.51c.03-.11.06-.18.1-.3.16-.55.24-1.12.24-1.72,0-1.19-.34-2.45-.86-3.62-.53-1.18-1.23-2.28-1.99-3.25-1.51-1.95-3.18-3.37-4.37-4.3-.6-.46-1.1-.81-1.44-1.04-.34-.23-.53-.35-.53-.35l1.43-1.82Z"/>
        <path class="cls-3" d="M335.01,145.93s.21.14.61.41c.4.27.97.67,1.68,1.22,1.4,1.09,3.36,2.75,5.21,5.14.93,1.19,1.81,2.57,2.52,4.15.7,1.57,1.21,3.37,1.22,5.29,0,.96-.13,1.95-.42,2.92-.07.25-.17.5-.26.76l-.14.32-.07.16-.03.08-.02.04-.04.08c-.11.22-.22.45-.35.67-.13.22-.25.44-.38.65-1.07,1.72-2.53,3.26-4.28,4.49-1.74,1.23-3.76,2.13-5.85,2.64-2.09.53-4.23.66-6.25.53-2.03-.13-3.94-.52-5.69-1.02-.44-.12-.86-.27-1.28-.4-.42-.14-.83-.3-1.24-.45-.39-.15-.75-.3-1.12-.45l-.14-.06-.09-.04-.07-.03-.29-.13c-.19-.09-.38-.18-.56-.28-.73-.38-1.39-.81-1.98-1.27-.59-.45-1.1-.93-1.54-1.4-.89-.95-1.49-1.88-1.92-2.67-.1-.2-.2-.39-.29-.56-.08-.18-.16-.35-.23-.51-.14-.32-.25-.61-.34-.83-.14-.41-.22-.64-.22-.64l2.35-.67s.08.22.22.64c.08.18.15.4.28.67.06.13.13.28.2.43.08.15.16.31.25.48.36.66.87,1.44,1.6,2.22.36.39.78.78,1.25,1.15.47.37,1.01.72,1.61,1.03.15.08.3.16.46.23l.24.11.06.03h.01s-.03,0,0,0h.03s.14.07.14.07c.36.15.74.31,1.11.45.36.13.72.27,1.1.4.38.12.77.25,1.17.37,1.59.46,3.32.81,5.11.92,1.79.11,3.65,0,5.44-.46,1.79-.44,3.51-1.2,4.99-2.25,1.48-1.04,2.73-2.36,3.64-3.82.11-.18.22-.37.32-.55.1-.19.19-.38.29-.56.09-.2.17-.39.26-.59.06-.18.12-.34.18-.53.23-.76.33-1.54.33-2.32,0-1.56-.43-3.08-1.04-4.46-.62-1.38-1.42-2.62-2.26-3.7-1.68-2.17-3.49-3.71-4.79-4.72-.66-.5-1.19-.88-1.56-1.13-.37-.25-.57-.38-.57-.38l1.43-1.82Z"/>
        <path class="cls-4" d="M336.44,144.1s.23.15.66.44c.43.29,1.04.72,1.8,1.31,1.51,1.18,3.61,2.95,5.63,5.56,1.01,1.3,1.99,2.82,2.79,4.59.78,1.77,1.39,3.83,1.4,6.13,0,1.14-.15,2.34-.51,3.52-.09.31-.22.66-.34.98l-.14.32-.07.16-.03.08-.02.04-.06.13v.02c-.14.26-.27.52-.41.77-.15.25-.29.5-.44.75-1.23,1.98-2.91,3.75-4.91,5.16-2,1.42-4.33,2.44-6.71,3.03-2.39.6-4.81.75-7.07.61-2.26-.14-4.37-.57-6.27-1.12-.48-.14-.93-.29-1.39-.44-.46-.16-.93-.33-1.38-.5-.12-.04-.2-.08-.3-.12l-.28-.11c-.18-.08-.37-.15-.55-.22l-.14-.06-.14-.06-.09-.04c-.11-.05-.23-.1-.34-.16-.23-.1-.45-.21-.66-.33-.87-.45-1.66-.96-2.35-1.5-.7-.54-1.3-1.1-1.82-1.66-1.04-1.12-1.75-2.21-2.25-3.12-.12-.23-.23-.45-.34-.65-.1-.21-.18-.4-.27-.58-.16-.37-.3-.73-.4-1-.14-.42-.22-.64-.22-.64l2.35-.67s.08.22.22.64c.09.22.2.52.34.83.07.16.15.33.23.51.09.18.19.37.29.56.43.79,1.04,1.72,1.92,2.67.44.48.95.95,1.54,1.4.58.46,1.24.89,1.98,1.27.18.1.37.19.56.28l.29.13.07.03.09.04.14.06c.37.15.73.3,1.12.45.41.15.82.3,1.24.45.42.13.84.28,1.28.4,1.75.5,3.66.89,5.69,1.02,2.02.12,4.17,0,6.25-.53,2.09-.51,4.11-1.41,5.85-2.64,1.74-1.23,3.21-2.77,4.28-4.49.13-.21.26-.43.38-.65.12-.22.23-.44.35-.67l.04-.08.02-.04.03-.08.07-.16.14-.32c.09-.25.19-.51.26-.76.29-.97.42-1.96.42-2.92,0-1.93-.52-3.72-1.22-5.29-.71-1.57-1.6-2.95-2.52-4.15-1.85-2.39-3.81-4.04-5.21-5.14-.71-.54-1.28-.95-1.68-1.22-.4-.27-.61-.41-.61-.41l1.43-1.82Z"/>
        <path class="cls-5" d="M337.87,142.28s.24.16.7.47c.45.31,1.11.77,1.93,1.39.81.63,1.77,1.42,2.8,2.4,1.04.98,2.15,2.16,3.25,3.57,1.1,1.41,2.17,3.07,3.06,5.04.87,1.97,1.57,4.3,1.58,6.97,0,1.33-.18,2.73-.59,4.12-.02.08-.05.18-.09.29l-.11.31c-.07.21-.15.41-.23.61l-.14.33-.07.16-.03.08-.02.04-.09.2v.03c-.16.29-.31.58-.47.87-.16.28-.32.57-.5.85-1.39,2.24-3.29,4.23-5.55,5.83-2.26,1.6-4.89,2.76-7.57,3.42-2.68.67-5.39.83-7.89.68-2.5-.16-4.8-.63-6.85-1.22-.52-.15-1.01-.31-1.5-.47-.5-.17-1.02-.37-1.52-.55-.14-.05-.21-.08-.31-.12l-.28-.11c-.18-.08-.37-.15-.55-.22l-.14-.06-.19-.08-.1-.04c-.13-.06-.26-.12-.4-.18-.26-.12-.52-.24-.77-.38-1-.52-1.92-1.12-2.72-1.74-.8-.62-1.51-1.27-2.1-1.92-1.2-1.29-2.01-2.53-2.57-3.57-.14-.26-.26-.51-.38-.74-.11-.23-.21-.45-.3-.66-.09-.19-.18-.43-.26-.62-.08-.2-.15-.38-.21-.54-.14-.41-.22-.64-.22-.64l2.35-.67s.08.22.22.64c.11.27.24.63.4,1,.08.18.17.37.27.58.11.2.22.42.34.65.5.91,1.2,2,2.25,3.12.52.56,1.12,1.12,1.82,1.66.69.54,1.48,1.06,2.35,1.5.21.12.44.23.66.33.11.05.23.1.34.16l.09.04.14.06.14.06c.18.07.36.15.55.22l.28.11c.1.04.18.07.3.12.45.16.92.34,1.38.5.46.14.91.3,1.39.44,1.9.55,4.01.98,6.27,1.12,2.26.14,4.68,0,7.07-.61,2.38-.58,4.71-1.61,6.71-3.03,2-1.41,3.68-3.18,4.91-5.16.16-.25.3-.5.44-.75.14-.25.27-.51.4-.77v-.02s.07-.13.07-.13l.02-.04.03-.08.07-.16.14-.32c.12-.32.25-.67.34-.98.35-1.18.51-2.37.51-3.52-.01-2.3-.62-4.36-1.4-6.13-.8-1.77-1.78-3.29-2.79-4.59-2.03-2.61-4.12-4.38-5.63-5.56-.76-.58-1.38-1.02-1.8-1.31-.43-.29-.66-.44-.66-.44l1.43-1.82Z"/>
      </g>
      <g>
        <path class="cls-5" d="M320.44,146.3s.39-.48,1.06-1.32c.16-.21.37-.43.59-.67.22-.24.46-.5.72-.78.13-.14.26-.29.4-.42.14-.13.28-.27.43-.41.29-.28.6-.58.92-.89.37-.33.81-.68,1.24-1.04.22-.18.44-.37.66-.55.17-.13.35-.26.53-.4.83-.61,1.74-1.19,2.73-1.7,1.97-1.02,4.27-1.73,6.53-1.89.56-.03,1.12-.04,1.67-.01.54.03,1.08.1,1.58.19,1.01.2,1.92.53,2.61.95.09.05.17.11.25.16.08.05.16.11.23.16.06.05.17.12.19.15.02.02.04.03.06.05l.03.02s0,0,.02.02l.04.04c.11.11.22.22.33.33-.17-.18-.04-.04-.08-.08h0s.02.03.02.03l.03.04.06.07.12.14c.16.19.32.38.47.56.17.18.28.38.41.56.13.19.26.37.38.55.23.37.41.73.61,1.07.15.35.29.68.43,1,.09.32.18.63.28.91.05.29.1.55.15.8.01.06.03.13.03.18,0,.05,0,.09,0,.14,0,.09,0,.17.02.26.06.23,0,.81-.01,1.1-.02.31-.03.47-.03.47l-2.46-.13s.01-.16.03-.47c.02-.27.08-.94,0-.94,0-.04-.01-.08-.01-.12,0-.02,0-.04,0-.07,0-.03-.02-.08-.03-.13-.04-.18-.07-.38-.11-.6-.08-.22-.15-.45-.21-.7-.12-.25-.23-.51-.34-.79-.17-.27-.31-.56-.49-.87-.11-.15-.21-.3-.32-.45-.11-.15-.2-.32-.35-.47-.13-.16-.27-.32-.4-.48l-.1-.12-.05-.06-.03-.03v-.02s-.02,0-.02,0c.06.07-.15-.16.14.15-.11-.11-.22-.22-.33-.33l-.04-.04s0,0,0,0v.02s.02.02.03.03h.01s-.01,0-.02,0l-.06-.04s-.07-.06-.12-.09c-.04-.03-.08-.06-.14-.09-.39-.25-1.02-.48-1.77-.63-.38-.07-.79-.12-1.21-.15-.43-.02-.88-.01-1.34.01-1.84.13-3.8.72-5.5,1.6-.86.44-1.66.95-2.39,1.49-.09.07-.18.14-.27.2l-.13.1-.07.05h0c-.13.11.17-.14.14-.11l-.02.02-.04.04c-.22.19-.44.37-.66.55-.22.18-.43.36-.64.53-.1.09-.21.17-.31.26l-.15.13c-.05.04-.1.08-.13.12-.29.28-.56.54-.82.79-.13.12-.26.25-.38.36-.13.11-.25.27-.37.39-.24.26-.46.5-.67.72-.21.22-.4.43-.55.62-.63.78-.99,1.22-.99,1.22l-2.03-1.26Z"/>
        <path class="cls-4" d="M318.41,145.03s.42-.52,1.14-1.42c.17-.23.4-.47.64-.72.24-.26.5-.54.77-.84.14-.15.27-.31.43-.46.15-.15.31-.3.48-.45.33-.31.67-.64,1.03-.98.39-.34.81-.69,1.24-1.05.22-.18.44-.37.66-.55l.04-.04.02-.02s-.05.04-.02.02h.01s.08-.07.08-.07l.17-.13c.11-.09.23-.17.34-.26.92-.68,1.95-1.33,3.07-1.91,2.23-1.15,4.87-1.98,7.56-2.17.67-.04,1.34-.05,2.01-.02.66.04,1.32.12,1.95.24,1.26.26,2.46.67,3.44,1.27.49.3.94.64,1.3.97.11.11.22.22.33.33-.06-.06-.01-.01-.02-.02h0s.02.03.02.03l.03.04.07.08.14.16c.18.22.36.43.54.64.19.21.33.43.48.65.15.22.3.43.45.64.27.43.49.86.72,1.27.18.42.36.83.52,1.21.12.4.23.77.34,1.13.07.36.13.7.19,1.01.01.08.03.16.04.23,0,.07,0,.14.01.21,0,.14.02.27.02.39.06.46,0,.96-.02,1.26-.02.31-.03.47-.03.47l-2.46-.13s.01-.16.03-.47c.02-.28.08-.87.01-1.1,0-.08-.01-.17-.02-.26,0-.05,0-.09,0-.14,0-.05-.02-.12-.03-.18-.05-.25-.09-.52-.15-.8-.09-.28-.18-.59-.28-.91-.14-.32-.28-.65-.43-1-.2-.34-.38-.7-.61-1.07-.13-.18-.25-.36-.38-.55-.13-.19-.25-.38-.41-.56-.16-.18-.31-.37-.47-.56l-.12-.14-.06-.07-.03-.04-.02-.02h0s-.09-.11.08.07c-.11-.11-.22-.22-.33-.33l-.04-.04s-.01-.01-.02-.02l-.03-.02s-.04-.03-.06-.05c-.02-.02-.12-.09-.19-.15-.07-.06-.15-.11-.23-.16-.08-.05-.16-.11-.25-.16-.69-.42-1.6-.75-2.61-.95-.51-.1-1.04-.16-1.58-.19-.55-.03-1.11-.02-1.67.01-2.27.16-4.56.87-6.53,1.89-.99.51-1.9,1.09-2.73,1.7-.18.13-.35.27-.53.4-.22.19-.44.37-.66.55-.43.36-.86.72-1.24,1.04-.32.31-.63.61-.92.89-.15.14-.29.28-.43.41-.14.13-.27.29-.4.42-.26.28-.5.54-.72.78-.22.24-.43.46-.59.67-.68.84-1.06,1.32-1.06,1.32l-2.03-1.26Z"/>
        <path class="cls-3" d="M316.38,143.77s.44-.55,1.22-1.51c.19-.25.42-.5.68-.77.25-.28.53-.57.82-.89.15-.16.29-.33.46-.49.17-.16.34-.33.52-.5.36-.34.74-.7,1.13-1.08.4-.35.82-.69,1.25-1.06.22-.18.44-.37.66-.55l.11-.09.09-.07.19-.14c.12-.09.25-.19.37-.28,1.02-.75,2.16-1.47,3.41-2.12,2.5-1.29,5.48-2.24,8.59-2.46.78-.05,1.56-.06,2.34-.02.78.05,1.56.14,2.32.29,1.52.31,3,.81,4.28,1.59.64.39,1.23.82,1.78,1.35.11.11.22.22.33.33l.04.04h0s.02.04.02.04l.04.05.08.09.15.18c.21.25.41.49.61.73.21.23.37.49.55.74.17.25.34.49.51.73.31.5.57,1,.84,1.47.22.49.42.97.61,1.43.14.47.28.92.41,1.34.09.43.16.84.23,1.21.02.09.04.18.05.28,0,.1.01.19.02.28.01.18.02.36.03.52.06.69,0,1.1-.02,1.42-.02.31-.03.47-.03.47l-2.46-.13s.01-.16.03-.47c.01-.3.08-.8.02-1.26,0-.12-.01-.25-.02-.39,0-.07,0-.14-.01-.21,0-.07-.03-.15-.04-.23-.06-.31-.11-.65-.19-1.01-.11-.35-.22-.73-.34-1.13-.17-.39-.34-.79-.52-1.21-.23-.41-.46-.84-.72-1.27-.15-.21-.29-.42-.45-.64-.15-.22-.29-.44-.48-.65-.18-.21-.36-.43-.54-.64l-.14-.16-.07-.08-.03-.04-.02-.02h0s-.03-.05.02.01c-.11-.11-.22-.22-.33-.33-.36-.34-.8-.68-1.3-.97-.98-.6-2.18-1.02-3.44-1.27-.64-.12-1.29-.2-1.95-.24-.66-.03-1.34-.03-2.01.02-2.69.19-5.33,1.02-7.56,2.17-1.12.58-2.15,1.23-3.07,1.91-.11.09-.23.17-.34.26l-.17.13-.08.06h-.01s.03-.02.02,0l-.02.02-.04.04c-.22.19-.44.37-.66.55-.43.36-.86.71-1.24,1.05-.36.34-.7.67-1.03.98-.16.16-.32.31-.48.45-.16.15-.29.31-.43.46-.28.3-.53.58-.77.84-.24.26-.46.49-.64.72-.73.9-1.14,1.42-1.14,1.42l-2.03-1.26Z"/>
        <path class="cls-4" d="M314.34,142.51s.47-.59,1.3-1.61c.2-.26.45-.53.72-.82.27-.29.56-.61.87-.95.16-.17.31-.34.49-.52.18-.18.38-.36.57-.55.39-.37.81-.76,1.24-1.17.41-.36.82-.69,1.25-1.06.22-.18.44-.37.66-.55l.18-.14.1-.08.2-.15c.14-.1.27-.21.41-.31,1.11-.82,2.36-1.62,3.75-2.33,2.76-1.42,6.08-2.49,9.62-2.74.89-.06,1.78-.07,2.68-.02.9.05,1.8.16,2.69.33,1.78.36,3.54.96,5.12,1.91.2.11.39.24.58.37.19.13.38.26.56.4.19.15.35.26.56.45l.3.27.15.13.07.06.04.04c.11.11.22.22.32.33.18.19.06.06.1.11h.01s.02.04.02.04l.04.05.09.1.17.21c.23.27.45.54.68.81.23.26.42.55.61.83.19.28.38.56.57.83.35.56.65,1.14.95,1.67.26.57.49,1.12.71,1.64.17.55.33,1.07.47,1.56.11.5.19.98.26,1.42.02.11.04.21.05.33,0,.12.02.24.02.35.01.23.02.45.04.66.05.92-.01,1.25-.03,1.58-.02.31-.03.47-.03.47l-2.46-.13s.01-.16.03-.47c.01-.32.08-.73.02-1.42,0-.17-.02-.34-.03-.52,0-.09-.01-.18-.02-.28,0-.09-.03-.18-.05-.28-.07-.37-.13-.78-.23-1.21-.13-.42-.26-.87-.41-1.34-.19-.45-.39-.93-.61-1.43-.27-.47-.53-.98-.84-1.47-.17-.24-.34-.49-.51-.73-.18-.25-.34-.51-.55-.74-.2-.24-.4-.48-.61-.73l-.15-.18-.08-.09-.04-.05-.02-.02h0s-.04-.05-.04-.05c-.11-.11-.22-.22-.33-.33-.55-.53-1.14-.97-1.78-1.35-1.28-.78-2.76-1.29-4.28-1.59-.76-.15-1.54-.24-2.32-.29-.78-.04-1.56-.03-2.34.02-3.11.22-6.09,1.17-8.59,2.46-1.25.65-2.39,1.37-3.41,2.12-.13.1-.25.19-.37.28l-.19.14-.09.07-.11.09c-.22.19-.44.37-.66.55-.43.37-.85.71-1.25,1.06-.39.38-.77.73-1.13,1.08-.18.17-.35.34-.52.5-.17.16-.31.33-.46.49-.29.32-.57.62-.82.89-.25.28-.49.53-.68.77-.78.96-1.22,1.51-1.22,1.51l-2.03-1.26Z"/>
        <path class="cls-5" d="M312.31,141.24s.5-.62,1.38-1.71c.21-.28.48-.56.76-.87.29-.31.6-.65.93-1,.17-.18.32-.36.53-.55.2-.19.41-.39.62-.59.43-.4.87-.82,1.34-1.26.06-.06.11-.1.16-.14l.15-.13c.1-.09.21-.17.31-.26.21-.17.42-.35.64-.53.22-.18.44-.37.66-.55l.24-.19.11-.08.22-.17c.15-.11.3-.22.44-.34,1.21-.89,2.57-1.76,4.09-2.54,3.02-1.56,6.69-2.75,10.65-3.03.99-.06,2-.07,3.01-.02,1.02.06,2.04.18,3.06.38,2.04.41,4.08,1.1,5.96,2.23.23.13.46.29.69.44.23.15.45.31.67.48l.33.25c.06.05.1.08.17.13l.19.17.38.34.18.17.08.08.04.04c.11.11.22.22.33.33.29.31.09.09.16.17h.01s.02.04.02.04l.05.06.1.11.19.23c.25.3.5.6.75.89.25.29.46.61.68.92.21.31.43.62.63.92.39.63.73,1.27,1.06,1.88.29.64.56,1.26.8,1.86.2.62.38,1.22.54,1.77.13.57.22,1.12.3,1.63.02.13.04.24.06.38.01.14.02.28.03.42.02.28.03.54.04.79.05,1.15-.02,1.39-.03,1.74-.02.31-.03.47-.03.47l-2.46-.13s.01-.16.03-.47c.01-.33.08-.66.03-1.58-.01-.21-.02-.43-.04-.66,0-.11-.02-.23-.02-.35-.01-.11-.03-.22-.05-.33-.08-.44-.16-.92-.26-1.42-.14-.49-.3-1.01-.47-1.56-.22-.52-.45-1.08-.71-1.64-.3-.54-.6-1.11-.95-1.67-.19-.27-.38-.55-.57-.83-.2-.28-.38-.57-.61-.83-.22-.27-.45-.54-.68-.81l-.17-.21-.09-.1-.04-.05-.02-.03h-.01c-.04-.06.08.07-.1-.12-.11-.11-.22-.22-.32-.33l-.04-.04-.07-.06-.15-.13-.3-.27c-.21-.19-.37-.31-.56-.45-.18-.14-.37-.27-.56-.4-.19-.13-.38-.26-.58-.37-1.58-.96-3.34-1.55-5.12-1.91-.89-.17-1.79-.28-2.69-.33-.9-.05-1.79-.04-2.68.02-3.54.25-6.86,1.32-9.62,2.74-1.38.71-2.63,1.51-3.75,2.33-.14.1-.27.21-.41.31l-.2.15-.1.08-.18.14c-.22.19-.44.37-.66.55-.43.37-.84.7-1.25,1.06-.43.41-.84.8-1.24,1.17-.2.19-.39.37-.57.55-.19.18-.33.35-.49.52-.31.34-.6.66-.87.95-.27.29-.52.56-.72.82-.83,1.03-1.3,1.61-1.3,1.61l-2.03-1.26Z"/>
      </g>
      <g>
        <path class="cls-5" d="M334,155.39s-.45.08-1.24.22c-.2.04-.41.08-.65.12-.12.02-.23.05-.38.07-.15.02-.31.04-.47.06-.62.07-1.33.16-2.1.25-1.37.13-2.97.15-4.6-.08-1.63-.22-3.3-.7-4.85-1.44-1.54-.74-2.96-1.75-4.16-2.85-1.2-1.11-2.19-2.31-2.95-3.4-.77-1.08-1.31-2.07-1.67-2.75-.08-.16-.16-.31-.22-.44-.07-.15-.14-.28-.19-.38-.1-.21-.16-.32-.16-.32l2.26-.9s.05.11.16.32c.05.1.11.23.18.38.06.11.12.24.2.38.32.61.83,1.52,1.52,2.5.69.99,1.57,2.06,2.63,3.03,1.05.97,2.27,1.82,3.56,2.44,1.3.62,2.68,1.02,4.07,1.21,1.38.19,2.76.17,3.97.06.74-.09,1.43-.17,2.03-.24.16-.02.32-.04.47-.06.08,0,.13-.02.19-.03.05-.01.11-.02.16-.03.21-.04.4-.08.57-.11.69-.12,1.09-.19,1.09-.19l.59,2.18Z"/>
        <path class="cls-4" d="M334.58,157.57s-.5.09-1.39.25c-.45.07-.95.2-1.63.26-.64.08-1.37.16-2.17.26-1.53.14-3.34.17-5.22-.09-1.88-.25-3.83-.82-5.63-1.67-1.79-.86-3.42-2.01-4.77-3.26-1.35-1.25-2.44-2.57-3.27-3.77-.84-1.19-1.43-2.26-1.82-3-.09-.18-.18-.35-.25-.49-.07-.15-.14-.28-.19-.39-.1-.21-.16-.32-.16-.32l2.26-.89s.05.11.16.32c.05.1.11.23.19.38.06.13.14.27.22.44.36.68.9,1.67,1.67,2.75.76,1.09,1.75,2.29,2.95,3.4,1.2,1.11,2.62,2.11,4.16,2.85,1.55.74,3.21,1.22,4.85,1.44,1.63.23,3.23.2,4.6.08.77-.09,1.47-.18,2.1-.25.16-.02.32-.04.47-.06.16-.02.26-.05.38-.07.24-.04.45-.08.65-.12.79-.14,1.24-.22,1.24-.22l.59,2.18Z"/>
        <path class="cls-3" d="M335.17,159.74s-.56.1-1.54.28c-.48.08-1.1.22-1.74.28-.66.08-1.41.17-2.23.27-1.69.16-3.71.19-5.85-.1-2.13-.29-4.37-.93-6.41-1.91-2.04-.98-3.87-2.28-5.37-3.67-1.5-1.38-2.69-2.84-3.6-4.14-.91-1.3-1.54-2.44-1.97-3.25-.11-.21-.2-.39-.28-.55-.07-.15-.14-.28-.19-.39-.1-.21-.16-.32-.16-.32l2.26-.89s.05.11.16.32c.05.11.11.24.19.39.07.14.16.31.25.49.39.74.98,1.81,1.82,3,.83,1.19,1.92,2.52,3.27,3.77,1.35,1.24,2.97,2.4,4.77,3.26,1.8.86,3.75,1.42,5.63,1.67,1.88.26,3.69.23,5.22.09.79-.09,1.52-.18,2.17-.26.67-.06,1.18-.19,1.63-.26.88-.16,1.39-.25,1.39-.25l.59,2.18Z"/>
        <path class="cls-4" d="M335.76,161.92s-.61.11-1.68.31c-.27.05-.57.1-.89.16-.16.03-.34.06-.49.08-.15.02-.31.04-.47.06-.68.08-1.46.17-2.3.27-1.86.17-4.09.21-6.47-.12-2.38-.32-4.9-1.05-7.19-2.14-2.29-1.1-4.32-2.55-5.97-4.07-1.65-1.52-2.94-3.11-3.92-4.51-.99-1.4-1.66-2.62-2.12-3.5-.12-.23-.22-.43-.31-.61-.07-.15-.14-.29-.19-.39-.1-.21-.16-.32-.16-.32l2.26-.89s.05.11.16.32c.05.11.11.24.19.39.08.16.18.34.28.55.43.81,1.06,1.95,1.97,3.25.91,1.3,2.1,2.75,3.6,4.14,1.5,1.38,3.33,2.68,5.37,3.67,2.04.98,4.28,1.62,6.41,1.91,2.14.29,4.15.26,5.85.1.82-.1,1.57-.19,2.23-.27.64-.06,1.26-.2,1.74-.28.98-.18,1.54-.28,1.54-.28l.59,2.18Z"/>
        <path class="cls-5" d="M336.35,164.09s-.67.12-1.83.33c-.29.05-.62.11-.97.17-.09.01-.18.03-.27.05-.09.02-.19.03-.26.04-.15.02-.31.04-.47.06-.7.08-1.5.18-2.37.28-2.02.19-4.46.23-7.1-.13-2.63-.35-5.44-1.16-7.97-2.38-2.54-1.22-4.78-2.82-6.58-4.48-1.81-1.66-3.2-3.37-4.25-4.88-1.06-1.51-1.78-2.8-2.27-3.75-.13-.25-.24-.47-.34-.66-.08-.16-.14-.29-.19-.4-.1-.21-.16-.32-.16-.32l2.26-.89s.05.11.16.32c.05.11.11.24.19.39.09.18.19.38.31.61.46.88,1.13,2.09,2.12,3.5.98,1.4,2.27,2.98,3.92,4.51,1.65,1.52,3.68,2.97,5.97,4.07,2.29,1.1,4.81,1.82,7.19,2.14,2.39.33,4.62.29,6.47.12.84-.1,1.61-.19,2.3-.27.16-.02.32-.04.47-.06.15-.02.34-.06.49-.08.32-.06.62-.11.89-.16,1.07-.19,1.68-.31,1.68-.31l.59,2.18Z"/>
      </g>
      <g>
        <path class="cls-5" d="M305.12,155.46s-.27-.07-.75-.2c-.24-.07-.54-.13-.86-.23-.32-.11-.68-.24-1.08-.37-.2-.06-.39-.15-.6-.24-.2-.09-.41-.18-.63-.27-.22-.08-.43-.2-.64-.31-.21-.11-.43-.23-.66-.34-.85-.51-1.74-1.08-2.47-1.78l-.29-.25c-.1-.08-.17-.18-.26-.27-.17-.18-.35-.35-.51-.54-.15-.19-.3-.37-.45-.56l-.11-.14-.1-.14c-.06-.09-.13-.19-.19-.28-.06-.09-.13-.19-.19-.28-.06-.09-.11-.19-.16-.28-.1-.19-.22-.36-.3-.54-.08-.18-.16-.35-.24-.52-.09-.17-.12-.33-.19-.49-.13-.31-.18-.6-.25-.84,0-.03-.02-.07-.02-.09v-.06s-.02-.08-.02-.11c-.01-.07-.03-.14-.05-.2-.03-.53-.05-.83-.05-.83l2.46-.1s.02.3.04.82c.01.01.03.02.03.04,0,0,0,.01,0,.02h0s.01.05.02.07c.06.17.08.37.18.6.05.12.07.24.14.36.06.13.12.26.18.4.07.14.16.28.24.42.04.07.08.15.12.22.05.07.1.14.15.22.05.07.1.15.15.22l.08.11.09.11c.12.15.24.3.36.45.13.15.28.29.42.43.07.07.13.15.21.22l.24.2c.6.57,1.34,1.04,2.05,1.47.19.1.37.19.56.29.18.1.35.2.54.27.19.08.36.16.54.23.17.08.34.16.51.21.34.12.66.22.94.32.29.09.55.14.76.2.42.12.66.18.66.18l-.6,2.17Z"/>
        <path class="cls-4" d="M304.52,157.63s-.31-.08-.85-.23c-.27-.07-.6-.15-.97-.26-.36-.13-.77-.27-1.22-.42-.23-.07-.45-.17-.68-.27-.23-.1-.47-.2-.72-.31-.25-.1-.49-.23-.74-.36-.25-.13-.5-.26-.76-.4-.99-.59-2.02-1.26-2.89-2.08l-.34-.3c-.11-.1-.21-.21-.31-.32-.2-.22-.41-.42-.61-.64-.18-.22-.36-.45-.54-.67l-.13-.16-.12-.17c-.08-.11-.16-.23-.23-.34-.08-.11-.15-.22-.23-.33-.07-.11-.13-.23-.2-.34-.13-.23-.26-.44-.37-.66-.1-.22-.2-.44-.3-.65-.11-.21-.16-.42-.24-.61-.16-.39-.23-.76-.32-1.09-.07-.32-.09-.57-.14-.79-.03-.53-.05-.84-.05-.84l2.46-.1s.02.3.05.83c.02.06.03.12.05.2,0,.04.01.07.02.11v.06s.02.06.03.09c.07.25.12.53.25.84.06.16.1.32.19.49.08.17.16.34.24.52.09.18.2.36.3.54.05.09.1.19.16.28.06.09.13.18.19.28.06.09.13.19.19.28l.1.14.11.14c.15.18.3.37.45.56.16.18.34.35.51.54.09.09.17.18.26.27l.29.25c.74.69,1.62,1.26,2.47,1.78.22.12.44.23.66.34.21.11.42.23.64.31.22.09.43.18.63.27.2.09.39.18.6.24.4.14.76.26,1.08.37.33.1.63.17.86.23.48.13.75.2.75.2l-.6,2.17Z"/>
        <path class="cls-3" d="M303.92,159.81s-.34-.09-.94-.25c-.3-.08-.66-.17-1.07-.29-.41-.14-.86-.3-1.36-.47-.25-.08-.5-.19-.76-.31-.26-.11-.53-.23-.81-.35-.28-.11-.55-.26-.83-.41-.28-.15-.57-.3-.86-.45-1.13-.67-2.3-1.44-3.32-2.38l-.39-.34c-.13-.12-.24-.24-.36-.37-.24-.25-.48-.49-.7-.74-.21-.26-.42-.52-.63-.78l-.16-.19-.14-.2c-.09-.13-.18-.27-.27-.4-.09-.13-.18-.26-.27-.39-.09-.13-.16-.27-.23-.4-.15-.27-.31-.52-.44-.78-.12-.26-.24-.52-.36-.77-.12-.25-.19-.5-.29-.74-.19-.47-.28-.93-.39-1.33-.09-.41-.14-.81-.19-1.12-.03-.54-.05-.85-.05-.85l2.46-.1s.02.3.05.84c.05.22.07.47.14.79.09.32.16.7.32,1.09.08.2.13.41.24.61.1.21.2.42.3.65.11.22.25.44.37.66.07.11.12.23.2.34.08.11.15.22.23.33.08.11.15.23.23.34l.12.17.13.16c.18.22.36.44.54.67.19.22.41.42.61.64.1.1.2.22.31.32l.34.3c.88.82,1.91,1.49,2.89,2.08.26.13.51.27.76.4.25.13.49.26.74.36.25.11.49.21.72.31.23.1.45.2.68.27.45.15.86.3,1.22.42.37.11.7.19.97.26.54.14.85.23.85.23l-.6,2.17Z"/>
        <path class="cls-4" d="M303.32,161.98s-.37-.1-1.03-.27c-.33-.09-.72-.18-1.18-.32-.45-.15-.95-.33-1.51-.52-.28-.09-.56-.21-.85-.34-.29-.13-.59-.25-.9-.39-.31-.13-.62-.29-.93-.45-.31-.17-.63-.33-.96-.51-1.26-.75-2.59-1.62-3.74-2.68l-.44-.39c-.15-.13-.28-.28-.41-.41-.27-.28-.54-.56-.8-.84-.24-.3-.49-.59-.72-.88l-.18-.22-.16-.23c-.11-.15-.21-.31-.31-.46-.1-.15-.21-.3-.31-.45-.1-.15-.18-.31-.27-.46-.17-.31-.35-.6-.5-.9-.14-.31-.28-.6-.41-.89-.14-.28-.23-.59-.33-.86-.22-.55-.34-1.1-.46-1.58-.01-.06-.03-.11-.04-.18-.01-.07-.02-.14-.03-.2-.02-.13-.04-.26-.06-.39-.04-.25-.07-.48-.09-.68-.03-.54-.05-.86-.05-.86l2.46-.1s.02.31.05.85c.05.31.09.71.19,1.12.11.4.2.86.39,1.33.09.24.16.49.29.74.12.25.23.51.36.77.13.26.29.52.44.78.08.13.15.27.23.4.09.13.18.26.27.39.09.13.18.26.27.4l.14.2.16.19c.21.26.42.51.63.78.23.25.47.49.7.74.12.12.23.25.36.37l.39.34c1.01.94,2.19,1.71,3.32,2.38.29.15.58.3.86.45.28.15.55.3.83.41.28.12.55.24.81.35.26.11.51.23.76.31.5.17.96.33,1.36.47.41.13.77.21,1.07.29.6.16.94.25.94.25l-.6,2.17Z"/>
        <path class="cls-5" d="M302.66,164.15s-.41-.11-1.12-.29c-.36-.1-.79-.2-1.28-.35-.49-.17-1.04-.36-1.65-.57-.3-.1-.61-.23-.93-.37-.32-.14-.65-.28-.99-.43-.34-.14-.68-.32-1.03-.5-.35-.18-.7-.37-1.06-.56-.36-.2-.7-.43-1.06-.65-.35-.23-.72-.44-1.06-.71-.34-.26-.69-.52-1.04-.78-.35-.26-.67-.57-1-.85l-.49-.44c-.16-.15-.31-.31-.46-.46-.3-.32-.61-.62-.9-.95-.27-.33-.55-.67-.81-.99l-.2-.25-.18-.26c-.12-.17-.24-.34-.35-.51-.12-.17-.23-.34-.34-.51-.11-.17-.21-.35-.31-.52-.2-.35-.4-.68-.57-1.03-.16-.35-.32-.69-.47-1.02-.16-.32-.26-.67-.38-.99-.25-.63-.39-1.27-.53-1.82-.02-.07-.03-.13-.05-.21-.02-.09-.03-.17-.04-.25-.03-.17-.05-.33-.08-.48-.05-.31-.08-.59-.11-.84-.03-.55-.05-.87-.05-.87l2.46-.1s.02.31.05.86c.02.21.06.44.09.68.02.12.04.25.06.39.01.07.02.13.03.2.01.07.03.12.04.18.12.48.25,1.03.46,1.58.11.28.19.58.33.86.13.29.27.59.41.89.15.3.33.6.5.9.09.15.17.31.27.46.1.15.2.3.31.45.1.15.21.3.31.46l.16.23.18.22c.24.29.48.59.72.88.26.29.53.56.8.84.14.14.27.28.41.41l.44.39c1.15,1.07,2.47,1.94,3.74,2.68.32.17.64.34.96.51.31.17.62.33.93.45.31.13.61.26.9.39.29.12.57.25.85.34.55.19,1.06.36,1.51.52.45.14.85.23,1.18.32.65.17,1.03.27,1.03.27l-.6,2.17Z"/>
      </g>
      <g>
        <path class="cls-5" d="M321.04,164.46s-.15.19-.42.53c-.13.17-.31.37-.51.59-.1.11-.2.24-.33.36-.12.12-.25.25-.39.38-.26.27-.59.53-.91.82-.35.26-.7.56-1.11.83-.79.55-1.69,1.07-2.62,1.49-.93.42-1.9.75-2.77.94-.22.05-.42.08-.63.12-.12.03-.17.02-.24.03-.07,0-.14.02-.2.03-.04.01-.21.02-.34.02-.13,0-.27.01-.4.02-.15,0-.29,0-.43-.01-.17,0-.36-.02-.53-.03-.17-.02-.35-.03-.48-.04-.12-.02-.23-.03-.33-.05-.05,0-.1-.01-.15-.02-.05,0-.08,0-.16-.02-.55-.11-.87-.18-.87-.18l.56-2.19s.31.07.87.18c.09.02.09.01.12.02.03,0,.06,0,.09,0,.06,0,.12.01.19.03.12.01.25.02.38.03.14.01.29.03.42.03.07,0,.14,0,.21,0h.11s.03,0,.03,0h0s0,0,0,0c-.51,0-.14,0-.25,0h.02s.1,0,.1,0c.13,0,.26-.01.4-.02.12,0,.33,0,.29-.02.02,0,.04-.01.06-.02.02,0,.02,0,.12-.02.15-.03.3-.04.47-.09.66-.14,1.46-.41,2.24-.76.79-.35,1.55-.8,2.23-1.27.35-.22.64-.48.95-.7.27-.25.56-.46.77-.7.11-.11.22-.22.33-.32.1-.1.19-.21.28-.3.17-.19.33-.35.43-.5.23-.28.36-.44.36-.44l2.05,1.26Z"/>
        <path class="cls-4" d="M323.09,165.73s-.18.22-.49.61c-.15.2-.36.42-.59.68-.12.13-.24.27-.38.41-.14.14-.29.28-.45.43-.3.31-.68.6-1.05.94-.4.3-.81.64-1.27.95-.91.63-1.93,1.23-3.02,1.72-1.08.49-2.22.87-3.29,1.11-.27.07-.53.1-.79.15-.26.05-.48.06-.71.09-.1.02-.25.02-.39.02-.13,0-.27.01-.4.02h-.1s-.02,0-.02,0c.02,0-.06,0,.05,0h-.02s-.04,0-.04,0c-.06,0-.12,0-.17,0-.11,0-.23,0-.34-.01-.22,0-.43-.02-.64-.04-.2-.02-.4-.03-.58-.05-.34-.05-.63-.08-.89-.13-.55-.11-.87-.18-.87-.18l.56-2.19s.31.07.87.18c.08.02.11.02.16.02.05,0,.1.01.15.02.1.01.21.03.33.05.13.02.31.03.48.04.17.02.36.03.53.03.14,0,.28,0,.43.01.13,0,.26-.01.4-.02.13,0,.3,0,.34-.02.07-.01.13-.02.2-.03.07,0,.13,0,.24-.03.21-.04.41-.06.63-.12.87-.19,1.83-.51,2.77-.94.93-.42,1.83-.95,2.62-1.49.4-.26.76-.56,1.11-.83.32-.29.65-.55.91-.82.13-.13.26-.26.39-.38.12-.12.22-.24.33-.36.2-.22.39-.42.51-.59.27-.34.42-.53.42-.53l2.05,1.26Z"/>
        <path class="cls-3" d="M325.24,166.81s-.2.26-.56.71c-.17.23-.41.49-.67.79-.14.15-.27.31-.43.47-.16.16-.33.33-.5.5-.34.36-.77.7-1.19,1.08-.45.35-.91.74-1.44,1.09-1.03.72-2.19,1.41-3.43,1.98-1.24.57-2.55,1.02-3.83,1.31-.32.08-.65.12-.96.18-.31.06-.67.08-.99.12-.17.02-.3.02-.44.03-.14,0-.27.01-.4.02h-.1s-.02,0-.02,0h-.06s-.01,0-.01,0h-.05c-.07,0-.14,0-.21,0-.14,0-.27,0-.41-.01-.27,0-.52-.03-.75-.05-.24-.02-.46-.04-.68-.06-.44-.06-.84-.12-1.13-.17-.55-.12-.87-.18-.87-.18l.56-2.24s.32.07.87.18c.26.04.55.08.89.13.18.02.38.03.58.05.21.02.42.04.64.04.11,0,.22,0,.34.01.06,0,.12,0,.17,0h.04s.01,0,.01,0h0c-.1,0-.02,0-.05,0h.02s.1,0,.1,0c.13,0,.26-.01.4-.02.13,0,.28,0,.39-.03.23-.03.46-.04.72-.09.26-.05.53-.09.8-.15,1.08-.24,2.22-.63,3.31-1.13,1.09-.5,2.12-1.11,3.03-1.75.46-.31.87-.66,1.27-.97.37-.34.75-.64,1.05-.96.16-.15.31-.3.45-.44.14-.14.26-.29.38-.42.24-.26.45-.49.6-.7.31-.4.49-.63.49-.63l2.06,1.29Z"/>
        <path class="cls-4" d="M327.19,168.25s-.23.28-.62.78c-.19.25-.45.54-.75.86-.15.16-.3.34-.48.52-.18.17-.36.36-.56.55-.38.39-.85.76-1.32,1.18-.5.39-1.01.81-1.59,1.19-1.14.79-2.42,1.54-3.81,2.16-1.38.62-2.85,1.13-4.34,1.46-.37.09-.75.14-1.12.21-.17.03-.4.06-.61.08-.21.02-.43.04-.63.06-.24.02-.34.02-.48.03-.13,0-.27.01-.4.02h-.1s-.02,0-.02,0h-.17s-.02,0-.02,0h-.06c-.08,0-.16,0-.24,0-.16,0-.32,0-.47-.01-.31,0-.59-.03-.86-.05-.27-.02-.51-.04-.77-.07-.27-.04-.52-.07-.76-.11-.12-.02-.23-.03-.34-.05-.1-.02-.22-.03-.28-.05-.55-.11-.87-.18-.87-.18l.56-2.19s.31.07.87.18c.3.05.69.1,1.13.17.22.02.44.04.67.06.24.02.48.04.75.05.13,0,.27,0,.4.01.07,0,.14,0,.21,0h.05s.01,0,.01,0h.06s.02,0,.02,0h.1c.13,0,.26-.01.4-.02.14,0,.26,0,.43-.03.32-.04.67-.06.98-.12.31-.06.64-.1.96-.18,1.28-.28,2.58-.73,3.82-1.28,1.23-.56,2.39-1.23,3.41-1.94.52-.34.98-.72,1.43-1.07.42-.37.84-.71,1.18-1.06.18-.17.34-.34.5-.49.16-.16.29-.32.43-.46.27-.29.5-.55.67-.77.35-.44.55-.7.55-.7l2.05,1.26Z"/>
        <path class="cls-5" d="M329.25,169.37s-.25.32-.69.88c-.21.28-.5.6-.83.97-.17.18-.34.38-.53.58-.2.2-.4.4-.62.61-.42.44-.93.86-1.45,1.32-.55.43-1.12.9-1.75,1.33-1.25.88-2.67,1.72-4.2,2.42-1.53.7-3.17,1.28-4.86,1.65-.42.1-.86.17-1.28.24-.19.04-.48.07-.74.1-.26.03-.52.05-.78.08-.31.03-.38.02-.53.03-.13,0-.27.01-.4.02h-.1s-.02,0-.02,0h-.27s-.02,0-.02,0h-.07c-.09,0-.18,0-.28,0-.18,0-.36-.01-.54-.02-.36,0-.67-.04-.97-.06-.31-.03-.57-.05-.86-.08-.32-.05-.62-.09-.9-.13-.14-.02-.27-.04-.4-.06-.12-.02-.27-.04-.32-.06-.55-.12-.87-.18-.87-.18l.56-2.22s.32.07.87.18c.06.01.18.03.28.05.11.02.22.03.34.05.23.03.49.07.76.11.26.03.5.05.77.07.27.02.55.05.86.06.15,0,.31,0,.47.01.08,0,.16,0,.24,0h.06s.02,0,.02,0h.17s.02,0,.02,0h.1c.13,0,.26-.01.4-.02.14,0,.24,0,.48-.03.21-.02.42-.04.63-.07.21-.02.44-.05.61-.08.37-.07.75-.12,1.12-.21,1.49-.33,2.96-.84,4.34-1.48,1.38-.63,2.67-1.4,3.81-2.19.58-.39,1.09-.82,1.59-1.21.47-.42.94-.8,1.32-1.2.2-.19.38-.38.56-.56.18-.18.33-.36.48-.52.3-.33.56-.62.75-.88.39-.5.62-.79.62-.79l2.05,1.28Z"/>
      </g>
      <g>
        <path class="cls-5" d="M333.92,138.75s-.09.35-.26.97c-.18.62-.48,1.5-.95,2.55-.1.27-.26.53-.39.81-.15.28-.28.57-.45.86-.35.57-.69,1.19-1.12,1.79-.1.15-.21.3-.31.46l-.16.23-.18.22c-.23.3-.47.6-.71.91-.24.3-.51.58-.77.88l-.39.44-.42.41c-1.09,1.14-2.32,2.11-3.51,2.96-.3.2-.6.4-.89.59l-.22.14-.22.12c-.15.08-.29.16-.44.24-.29.16-.57.33-.84.46-.28.13-.55.25-.81.37-.53.27-.96.4-1.36.55-.2.08-.38.14-.55.21-.23.06-.44.12-.62.17-.75.2-1.18.32-1.18.32l-.58-2.15s.43-.12,1.18-.32c.19-.05.4-.11.62-.17.14-.05.28-.11.44-.18.16-.06.32-.12.5-.18.04-.02.09-.03.14-.05.05-.02.11-.05.16-.07.11-.05.22-.1.34-.16.23-.1.47-.21.72-.33.25-.12.49-.27.75-.41.13-.07.26-.14.39-.22l.2-.11.2-.13c.26-.17.53-.35.81-.53,1.07-.76,2.2-1.64,3.19-2.69l.38-.38.36-.4c.23-.27.48-.53.7-.8.22-.28.43-.55.65-.83l.16-.2.14-.21c.1-.14.19-.28.29-.42.4-.54.7-1.1,1.02-1.62.15-.26.27-.52.4-.77.13-.25.27-.49.35-.72.42-.93.68-1.71.84-2.24.13-.53.22-.83.22-.83l2.18.47Z"/>
        <path class="cls-4" d="M336.17,139.43s-.12.41-.32,1.12c-.22.71-.6,1.71-1.18,2.88-.13.3-.31.59-.48.9-.18.31-.34.63-.54.95-.42.63-.83,1.31-1.35,1.96-.12.17-.25.33-.38.5l-.19.25-.21.24c-.28.33-.56.66-.85.99-.29.33-.61.64-.92.96l-.47.48-.5.45c-1.31,1.25-2.79,2.32-4.23,3.25-.37.22-.73.44-1.08.65l-.26.16c-.09.05-.18.09-.27.14-.18.09-.36.18-.54.27-.35.17-.69.36-1.03.51-.34.14-.68.28-.99.42-.64.29-1.22.46-1.74.64-.26.09-.5.17-.73.24-.25.06-.48.12-.69.17-.83.2-1.3.32-1.3.32l-.64-2.16s.47-.12,1.3-.32c.21-.05.44-.11.69-.17.19-.07.39-.14.61-.21.43-.15.91-.28,1.5-.55.29-.12.59-.24.9-.37.31-.14.61-.31.93-.46.16-.08.32-.16.48-.24l.25-.12.24-.14c.32-.19.65-.39.99-.59,1.31-.85,2.67-1.83,3.87-2.98l.46-.42.43-.44c.28-.3.58-.58.85-.89.26-.31.52-.61.78-.91l.19-.22.17-.23c.12-.15.23-.31.35-.46.48-.6.85-1.22,1.24-1.8.18-.29.33-.59.49-.86.15-.28.32-.55.44-.81.52-1.05.85-1.95,1.05-2.57.18-.62.28-.98.28-.98l2.41.47Z"/>
        <path class="cls-3" d="M338.58,139.9s-.13.46-.36,1.26c-.25.79-.67,1.91-1.3,3.19-.14.33-.34.64-.52.98-.19.33-.38.69-.59,1.03-.46.68-.9,1.42-1.46,2.13-.14.18-.27.36-.41.54l-.21.27-.23.26c-.3.35-.61.71-.92,1.07-.31.36-.66.69-.99,1.04l-.51.52-.54.49c-1.41,1.34-3.02,2.51-4.58,3.52-.4.24-.8.48-1.18.71-.1.06-.19.12-.29.17-.1.05-.2.1-.3.15-.2.1-.39.2-.59.3-.39.19-.75.39-1.13.56-.38.16-.74.31-1.09.46-.68.31-1.38.52-1.99.72-.3.1-.59.19-.85.28-.25.06-.48.12-.69.17-.83.2-1.3.32-1.3.32l-.64-2.16s.47-.12,1.3-.32c.21-.05.44-.11.69-.17.22-.07.47-.16.73-.24.52-.18,1.11-.35,1.74-.64.32-.13.65-.27.99-.42.34-.15.68-.34,1.03-.51.18-.09.35-.18.54-.27.09-.05.18-.09.27-.14l.26-.16c.35-.21.72-.43,1.08-.65,1.44-.93,2.92-2,4.23-3.25l.5-.45.47-.48c.31-.32.63-.63.92-.96.29-.33.57-.66.85-.99l.21-.24.19-.25c.13-.17.25-.34.38-.5.52-.65.93-1.34,1.35-1.96.2-.32.37-.64.54-.95.17-.31.35-.6.48-.9.58-1.16.95-2.17,1.18-2.88.2-.71.32-1.12.32-1.12l2.41.47Z"/>
        <path class="cls-4" d="M340.99,140.38s-.15.51-.4,1.4c-.28.88-.73,2.11-1.43,3.5-.16.36-.37.7-.57,1.07-.21.36-.41.74-.64,1.12-.49.74-.98,1.54-1.58,2.29-.15.19-.29.39-.44.58l-.22.29-.24.28c-.33.38-.65.76-.99,1.15-.34.38-.71.74-1.07,1.12l-.54.56-.58.53c-1.52,1.44-3.24,2.7-4.93,3.79-.43.26-.86.52-1.28.77-.1.06-.21.12-.31.19-.11.06-.22.11-.32.17-.21.11-.43.22-.64.32-.42.21-.82.43-1.23.61-.41.17-.81.34-1.19.5-.19.08-.38.16-.56.23-.09.04-.18.08-.28.11-.1.03-.2.07-.29.1-.39.13-.76.25-1.1.36-.35.11-.67.21-.97.31-.25.06-.48.12-.69.17-.83.2-1.3.32-1.3.32l-.64-2.16s.47-.12,1.3-.32c.21-.05.44-.11.69-.17.26-.09.55-.18.85-.28.6-.2,1.3-.41,1.99-.72.35-.15.72-.3,1.09-.46.37-.17.74-.37,1.13-.56.19-.1.39-.2.59-.3.1-.05.2-.1.3-.15.1-.06.19-.11.29-.17.39-.23.78-.47,1.18-.71,1.56-1.01,3.17-2.17,4.58-3.52l.54-.49.51-.52c.33-.35.68-.68.99-1.04.31-.36.62-.72.92-1.07l.23-.26.21-.27c.14-.18.27-.36.41-.54.56-.7,1.01-1.45,1.46-2.13.22-.35.4-.7.59-1.03.19-.34.38-.65.52-.98.64-1.28,1.05-2.39,1.3-3.19.23-.8.36-1.26.36-1.26l2.41.48Z"/>
        <path class="cls-5" d="M343.51,140.6s-.16.57-.44,1.56c-.31.98-.81,2.33-1.56,3.85-.17.39-.4.76-.62,1.16-.22.39-.44.81-.7,1.22-.52.8-1.05,1.67-1.7,2.49-.16.21-.31.42-.47.63l-.24.32-.26.31c-.35.41-.7.82-1.06,1.24-.36.41-.76.8-1.14,1.21l-.58.6-.62.57c-1.63,1.55-3.48,2.92-5.31,4.1-.47.28-.93.56-1.38.83-.11.07-.23.13-.34.2-.12.06-.23.12-.35.18-.23.12-.46.24-.69.35-.46.23-.89.46-1.33.66-.45.19-.88.37-1.3.55-.21.09-.41.17-.61.26-.1.04-.19.08-.3.12-.11.04-.22.08-.33.11-.44.15-.86.28-1.25.41-.39.12-.76.24-1.1.35-.25.06-.48.12-.69.17-.83.21-1.31.32-1.31.32l-.64-2.19s.48-.12,1.31-.32c.21-.05.44-.11.69-.17.3-.1.63-.2.97-.31.35-.12.72-.24,1.11-.37.1-.03.2-.07.3-.1.1-.03.18-.07.28-.11.18-.08.37-.16.56-.24.38-.16.78-.33,1.2-.51.41-.18.81-.4,1.23-.61.21-.11.42-.22.64-.33.11-.06.22-.11.32-.17.1-.06.21-.12.31-.19.42-.25.85-.51,1.28-.77,1.7-1.1,3.43-2.37,4.95-3.83l.58-.53.55-.56c.36-.38.73-.74,1.07-1.13.33-.39.66-.78.99-1.16l.24-.29.22-.3c.15-.2.3-.39.44-.59.6-.77,1.09-1.57,1.58-2.32.24-.38.44-.77.65-1.13.2-.37.41-.72.57-1.08.69-1.41,1.15-2.65,1.43-3.53.26-.9.4-1.42.4-1.42l2.42.48Z"/>
      </g>
      <g>
        <path class="cls-5" d="M315.91,163.61s-.07-.26-.2-.72c-.12-.46-.25-1.14-.33-1.99-.16-1.69,0-4.05.66-6.38.63-2.33,1.74-4.57,2.71-6.17.12-.21.24-.38.35-.55.11-.17.22-.33.32-.48.17-.28.42-.6.6-.85.37-.5.58-.78.58-.78l2.05,1.25s-.21.28-.58.78c-.09.12-.19.26-.3.41-.03.04-.06.08-.08.11-.02.03-.04.06-.06.09-.04.06-.08.13-.12.19-.09.13-.18.27-.27.42-.1.15-.2.29-.31.49-.9,1.47-1.91,3.52-2.48,5.63-.6,2.1-.73,4.2-.59,5.65.08.72.19,1.29.28,1.68.11.38.16.59.16.59l-2.37.62Z"/>
        <path class="cls-4" d="M313.55,164.23s-.09-.31-.23-.85c-.14-.54-.29-1.33-.39-2.3-.18-1.93,0-4.56.73-7.11.69-2.55,1.89-4.98,2.95-6.71.54-.86.98-1.53,1.37-2.04.37-.5.58-.78.58-.78l2.05,1.25s-.21.28-.58.78c-.18.25-.43.57-.6.85-.1.15-.2.31-.32.48-.11.17-.23.34-.35.55-.98,1.6-2.09,3.84-2.71,6.17-.67,2.32-.82,4.69-.66,6.38.09.84.22,1.52.33,1.99.13.46.2.72.2.72l-2.37.62Z"/>
        <path class="cls-3" d="M311.18,164.86s-.1-.36-.27-.98c-.16-.62-.33-1.52-.44-2.61-.08-1.08-.13-2.35.02-3.69.13-1.34.37-2.76.77-4.14.75-2.78,2.05-5.39,3.19-7.25.58-.93,1.11-1.73,1.48-2.2.37-.5.58-.78.58-.78l2.05,1.25s-.21.28-.58.78c-.39.51-.83,1.18-1.37,2.04-1.06,1.73-2.26,4.15-2.95,6.71-.73,2.55-.91,5.18-.73,7.11.1.96.25,1.75.39,2.3.15.54.23.85.23.85l-2.37.62Z"/>
        <path class="cls-4" d="M308.81,165.48s-.11-.4-.31-1.11c-.18-.71-.37-1.72-.49-2.92-.09-1.2-.14-2.6.02-4.07.15-1.46.4-3.01.84-4.5.81-3,2.2-5.8,3.42-7.79.62-1,1.25-1.92,1.59-2.36.37-.5.58-.78.58-.78l2.05,1.25s-.21.28-.58.78c-.37.47-.9,1.27-1.48,2.2-1.14,1.86-2.44,4.47-3.19,7.25-.4,1.38-.64,2.8-.77,4.14-.15,1.34-.1,2.61-.02,3.69.11,1.08.28,1.98.44,2.61.17.62.27.98.27.98l-2.37.62Z"/>
        <path class="cls-5" d="M306.51,166.1s-.13-.46-.37-1.26c-.21-.8-.44-1.94-.58-3.28-.1-1.34-.16-2.9.02-4.51.17-1.62.47-3.31.96-4.94.93-3.28,2.52-6.32,3.9-8.47.16-.27.36-.54.53-.8.18-.26.35-.5.51-.73.08-.12.16-.23.24-.33.04-.05.07-.1.11-.15.03-.04.06-.08.09-.12.12-.15.23-.29.32-.42.39-.51.62-.8.62-.8l2.18,1.27s-.22.29-.62.8c-.36.44-1.03,1.38-1.69,2.4-1.3,2.02-2.79,4.87-3.65,7.92-.46,1.52-.74,3.09-.89,4.58-.17,1.49-.11,2.91-.02,4.13.13,1.23.34,2.25.52,2.97.21.72.33,1.13.33,1.13l-2.53.63Z"/>
      </g>
      <g>
        <path class="cls-5" d="M310.13,133.49s.78.87,1.95,2.17c.57.69,1.24,1.5,1.96,2.37.72.9,1.48,1.86,2.24,2.83.38.48.77.97,1.14,1.45.34.45.67.88,1,1.31.62.89,1.24,1.74,1.68,2.43.23.35.44.67.63.95.19.32.36.6.5.82.27.46.43.72.43.72l-2.19,1.05s-.16-.26-.43-.72c-.14-.23-.3-.51-.5-.83-.17-.26-.37-.56-.59-.89-.4-.63-1.01-1.47-1.6-2.32-.31-.4-.62-.82-.94-1.24-.37-.48-.76-.96-1.14-1.45-.76-.96-1.52-1.92-2.23-2.81-.7-.85-1.36-1.64-1.92-2.31-1.12-1.24-1.86-2.07-1.86-2.07l1.88-1.45Z"/>
        <path class="cls-4" d="M311.99,132.03s.81.91,2.02,2.28c.58.71,1.26,1.55,1.99,2.44.71.91,1.48,1.89,2.24,2.86.38.49.77.98,1.13,1.46.36.47.71.94,1.05,1.39.64.93,1.27,1.8,1.74,2.56.24.38.47.72.66,1.02.19.32.36.6.49.83.27.46.43.73.43.73l-2.17,1.06s-.16-.26-.43-.73c-.14-.23-.3-.51-.49-.83-.19-.29-.4-.61-.62-.96-.43-.7-1.05-1.55-1.67-2.45-.32-.43-.65-.87-.99-1.32-.37-.49-.75-.97-1.13-1.46-.76-.97-1.52-1.94-2.23-2.85-.71-.87-1.38-1.69-1.95-2.39-1.16-1.31-1.94-2.19-1.94-2.19l1.87-1.46Z"/>
        <path class="cls-3" d="M313.87,130.57s.85.96,2.12,2.4c.6.73,1.3,1.59,2.04,2.51.72.92,1.49,1.91,2.26,2.89.38.49.77.98,1.14,1.47.38.5.75,1,1.11,1.48.67.98,1.31,1.87,1.82,2.68.26.4.5.77.71,1.1.19.32.36.61.5.84.27.46.43.73.43.73l-2.18,1.06s-.16-.27-.43-.73c-.14-.23-.3-.51-.5-.84-.2-.31-.42-.65-.67-1.03-.47-.76-1.1-1.63-1.75-2.58-.34-.46-.69-.93-1.05-1.4-.37-.49-.76-.98-1.14-1.47-.77-.98-1.53-1.96-2.25-2.88-.73-.9-1.41-1.74-2-2.46-1.22-1.38-2.03-2.3-2.03-2.3l1.88-1.47Z"/>
        <path class="cls-4" d="M315.73,129.11s.88.99,2.2,2.48c.61.75,1.32,1.61,2.08,2.54.72.92,1.49,1.9,2.26,2.89.38.49.76.98,1.13,1.46.39.52.78,1.04,1.16,1.54.69,1,1.34,1.9,1.89,2.77.27.42.52.81.74,1.15.19.32.36.6.49.83.27.46.43.73.43.73l-2.17,1.06s-.16-.26-.43-.73c-.14-.23-.3-.51-.49-.83-.21-.32-.45-.69-.7-1.09-.51-.81-1.15-1.69-1.81-2.66-.36-.48-.73-.97-1.1-1.47-.37-.49-.75-.97-1.13-1.46-.77-.98-1.53-1.96-2.25-2.88-.74-.91-1.44-1.76-2.03-2.49-1.27-1.43-2.11-2.38-2.11-2.38l1.87-1.46Z"/>
        <path class="cls-5" d="M317.65,127.68s.91,1.03,2.28,2.57c.62.76,1.34,1.64,2.11,2.59.72.92,1.49,1.91,2.26,2.89.38.49.76.97,1.13,1.46.41.55.82,1.09,1.21,1.61.71,1.04,1.37,1.95,1.95,2.87.29.45.55.85.78,1.22.19.32.35.6.49.83.27.46.43.72.43.72l-2.18,1.06s-.16-.26-.43-.72c-.14-.23-.3-.51-.49-.83-.22-.34-.47-.73-.74-1.15-.54-.87-1.19-1.76-1.88-2.77-.37-.5-.76-1.01-1.15-1.54-.37-.49-.75-.97-1.13-1.46-.77-.98-1.53-1.96-2.25-2.88-.76-.93-1.46-1.79-2.07-2.54-1.31-1.48-2.19-2.47-2.19-2.47l1.87-1.47Z"/>
        <text/>
      </g>
      <g>
        <path class="cls-4" d="M308.03,145.41s-.06-.14-.17-.41c-.11-.27-.29-.65-.47-1.16-.38-1.01-.88-2.47-1.25-4.26-.04-.22-.1-.45-.14-.69-.04-.23-.07-.47-.11-.71-.04-.25-.06-.48-.09-.72-.01-.12-.02-.24-.04-.36-.01-.12-.03-.24-.03-.39,0-.26-.02-.52-.03-.79.02-.25,0-.5.04-.75.04-.5.16-1.01.3-1.52.6-2.05,2.05-4.04,3.93-5.62,1.87-1.58,4.15-2.8,6.37-3.43.56-.16,1.11-.28,1.65-.35.28-.04.5-.06.76-.08.15,0,.3,0,.44-.01h.06s.01,0,.01,0c-.07,0-.01,0-.02,0h.03s.1,0,.1,0h.2c1.08.03,2.1.15,3.03.34,1.86.36,3.35.95,4.29,1.38.06.03.12.05.18.08.06.03.12.06.18.09.11.06.22.12.32.17.2.11.37.2.51.27.28.15.42.22.42.22l-1.18,1.95s-.15-.08-.42-.22c-.14-.07-.31-.16-.51-.27-.1-.05-.21-.11-.32-.17-.06-.03-.12-.06-.18-.09-.05-.02-.09-.04-.14-.06-.69-.31-2.02-.84-3.62-1.15-.8-.17-1.69-.27-2.6-.29h-.17s-.09,0-.09,0h-.02s-.12,0,.1,0h-.01s-.06,0-.06,0c-.15,0-.29,0-.44.01-.18.02-.24.02-.49.06-.41.05-.85.15-1.31.28-1.84.51-3.86,1.58-5.46,2.94-1.61,1.36-2.78,3.02-3.22,4.56-.1.38-.19.76-.22,1.13-.03.18-.01.37-.03.55,0,.24.02.48.03.71v.2s.03.15.03.15c.01.1.02.19.03.29,0,.1.02.19.03.29,0,.09.03.21.05.32.03.22.07.43.1.64.03.21.09.42.13.62.34,1.64.8,3,1.16,3.93.17.47.34.83.44,1.07.1.25.16.38.16.38l-2.2.87Z"/>
        <path class="cls-3" d="M305.83,146.22s-.07-.15-.19-.44c-.12-.29-.32-.7-.52-1.24-.42-1.08-.97-2.64-1.39-4.58-.05-.24-.11-.49-.15-.74-.04-.26-.08-.52-.13-.78-.05-.26-.08-.54-.1-.83-.01-.14-.03-.29-.04-.43-.02-.15-.03-.29-.03-.42,0-.28-.02-.57-.03-.86.02-.31,0-.63.05-.95.06-.64.2-1.28.38-1.91.39-1.26,1.02-2.5,1.85-3.62.82-1.13,1.82-2.14,2.92-3.05,2.21-1.8,4.81-3.16,7.51-3.9.67-.19,1.36-.33,2.05-.42.33-.05.72-.08,1.07-.1.15,0,.31,0,.46-.01h.06s.1,0,.1,0h.12s.24,0,.24,0c1.28.03,2.48.16,3.56.38,2.18.41,3.88,1.05,5.1,1.6.08.03.15.06.22.09.06.03.12.06.18.09.12.06.23.12.33.17.21.11.38.2.52.27.28.15.44.22.44.22l-1.21,1.95s-.15-.08-.43-.22c-.14-.07-.32-.16-.52-.27-.1-.05-.21-.11-.33-.17-.06-.03-.12-.06-.18-.09-.06-.02-.12-.05-.18-.08-.97-.43-2.5-1.01-4.41-1.37-.95-.19-2.01-.31-3.12-.33h-.21s-.1,0-.1,0h-.03s-.05,0,.02,0h-.01s-.06,0-.06,0c-.15,0-.3,0-.46.01-.27.02-.49.03-.79.08-.55.07-1.12.19-1.7.35-2.3.63-4.64,1.84-6.57,3.42-1.93,1.58-3.43,3.57-4.05,5.61-.14.51-.26,1.02-.3,1.52-.04.25-.03.5-.04.74,0,.27.02.53.03.79,0,.14.01.27.03.38.01.12.03.24.04.36.02.24.04.47.09.72.04.24.08.48.11.71.04.23.1.46.14.68.39,1.79.9,3.25,1.29,4.25.19.5.38.89.49,1.16.12.27.18.41.18.41l-2.27.87Z"/>
        <path class="cls-4" d="M303.73,147.33s-.07-.16-.2-.47c-.13-.31-.34-.76-.56-1.34-.45-1.16-1.03-2.84-1.48-4.95-.05-.27-.12-.53-.16-.81-.04-.28-.09-.57-.14-.86-.02-.15-.05-.28-.07-.45-.02-.17-.03-.33-.05-.5-.02-.17-.03-.34-.05-.51l-.02-.26v-.21c-.02-.31-.03-.63-.04-.95.02-.38.01-.77.06-1.16.07-.78.24-1.55.46-2.32.47-1.53,1.21-3,2.16-4.3.94-1.32,2.07-2.48,3.3-3.51,1.24-1.02,2.57-1.91,3.98-2.65.7-.37,1.42-.71,2.16-1,.74-.3,1.49-.56,2.27-.77.77-.22,1.56-.38,2.38-.49.37-.06.92-.1,1.34-.12.15,0,.3,0,.45-.01h.06s.14,0,.14,0h.03s.14,0,.14,0h.27c1.44.04,2.77.19,3.98.43,2.43.47,4.28,1.17,5.74,1.84.09.04.17.08.25.11.06.03.12.06.18.09.12.06.23.12.33.17.2.11.38.2.52.27.28.15.43.23.43.23l-1.21,1.97s-.15-.08-.43-.23c-.14-.07-.31-.16-.52-.27-.1-.05-.21-.11-.33-.17-.06-.03-.12-.06-.18-.09-.07-.03-.14-.06-.22-.09-1.21-.55-2.9-1.2-5.07-1.61-1.08-.21-2.27-.35-3.54-.38h-.24s-.12,0-.12,0h-.15c-.15,0-.3.01-.45.01-.34.02-.73.05-1.06.1-.68.09-1.36.23-2.03.42-2.68.75-5.27,2.12-7.47,3.94-1.09.92-2.09,1.94-2.9,3.08-.82,1.13-1.45,2.38-1.84,3.65-.18.64-.32,1.29-.38,1.93-.04.32-.04.64-.05.95,0,.29.02.58.03.87,0,.13.01.28.03.43.01.15.03.29.04.44.03.29.06.58.1.84.04.27.08.53.12.79.04.26.1.51.15.75.42,1.96.96,3.53,1.38,4.62.21.55.4.96.52,1.25.12.29.19.44.19.44l-2.26.88Z"/>
        <path class="cls-5" d="M301.5,148.29s-.07-.17-.22-.5c-.13-.33-.36-.81-.59-1.43-.48-1.24-1.09-3.02-1.58-5.29-.06-.29-.13-.57-.18-.87-.05-.3-.1-.62-.15-.93l-.04-.24c-.01-.08-.02-.16-.03-.26-.02-.19-.04-.38-.06-.57-.02-.19-.04-.39-.05-.58l-.02-.29v-.21c-.01-.14-.02-.28-.02-.41v-.21s-.01-.1-.01-.1v-.05s0-.03,0-.03v-.2s0-.02,0-.02c.02-.45.02-.91.07-1.36.08-.92.28-1.83.54-2.73.54-1.78,1.4-3.48,2.48-4.96,1.07-1.5,2.33-2.8,3.7-3.94,1.37-1.14,2.84-2.12,4.4-2.94.78-.41,1.57-.79,2.4-1.12.82-.33,1.66-.62,2.54-.86.87-.24,1.78-.44,2.73-.57.24-.03.45-.06.77-.09l.44-.03h.22s.18-.02.18-.02c.15,0,.3,0,.45-.01h.06s.22,0,.22,0h.04s.15,0,.15,0h.3c1.62.04,3.08.21,4.41.48.33.07.66.13.98.2.31.08.62.16.92.24.3.08.59.15.87.24.28.09.55.18.81.27,1,.31,2.05.78,2.84,1.14.1.05.2.09.29.13.06.03.12.06.18.1.12.06.23.12.33.17.2.11.38.2.52.27.28.15.43.23.43.23l-1.21,1.97s-.15-.08-.43-.23c-.14-.07-.31-.16-.52-.27-.1-.05-.21-.11-.33-.17-.06-.03-.12-.06-.18-.09-.08-.04-.17-.07-.25-.11-1.46-.67-3.31-1.37-5.74-1.84-1.21-.24-2.53-.39-3.98-.43h-.27s-.14,0-.14,0h-.03s-.14,0-.14,0h-.06c-.15,0-.3.01-.45.01-.42.02-.97.07-1.34.12-.82.11-1.61.28-2.38.49-.77.21-1.53.47-2.27.77-.74.29-1.46.63-2.16,1.01-1.41.74-2.74,1.63-3.97,2.66-1.22,1.03-2.36,2.2-3.3,3.52-.95,1.3-1.69,2.78-2.16,4.31-.22.77-.39,1.55-.46,2.33-.05.39-.05.78-.06,1.16.01.32.02.64.03.95v.21s.03.26.03.26c.02.17.03.34.05.51.02.17.03.34.05.5.02.17.04.3.07.45.05.29.09.58.14.86.05.28.11.55.16.81.45,2.11,1.03,3.79,1.48,4.96.22.58.43,1.03.56,1.34.13.31.2.47.2.47l-2.26.88Z"/>
        <path class="cls-5" d="M309.91,145.25s-.06-.14-.17-.39c-.1-.26-.28-.63-.47-1.12-.38-.97-.87-2.38-1.23-4.08-.04-.21-.1-.43-.13-.65-.03-.22-.07-.44-.11-.67-.02-.11-.04-.24-.05-.33,0-.1-.02-.2-.03-.3-.01-.1-.02-.2-.03-.3l-.02-.15v-.21c-.02-.24-.03-.49-.04-.74.02-.19,0-.38.03-.57.03-.38.12-.77.23-1.17.47-1.59,1.71-3.32,3.43-4.73,1.7-1.41,3.85-2.52,5.8-3.06.49-.14.96-.23,1.39-.29.26-.04.33-.04.52-.06.16,0,.32,0,.47-.01h.06s.01,0,.01,0c-.23,0-.06,0-.11,0h.02s.09,0,.09,0h.18c.97.03,1.92.13,2.77.3,1.7.32,3.11.87,3.85,1.19.05.02.1.04.15.06.06.03.13.07.19.1.12.06.24.12.34.18.21.11.39.2.54.28.29.15.45.23.45.23l-1.25,2.03s-.16-.08-.45-.23c-.15-.08-.33-.17-.54-.28-.11-.05-.22-.11-.34-.18-.06-.03-.12-.06-.19-.1-.04-.01-.08-.03-.11-.04-.32-.1-.59-.26-1.22-.45-.14-.05-.28-.1-.43-.15-.15-.04-.31-.08-.47-.12-.16-.04-.33-.09-.5-.13-.17-.03-.35-.07-.53-.1-.72-.15-1.52-.23-2.31-.25h-.15s-.07,0-.07,0h-.02c.08,0-.2,0,.19,0h-.01s-.06,0-.06,0c-.16,0-.31,0-.47.01-.06,0-.04,0-.05,0h0s-.01,0-.02,0c.01,0-.09.01-.16.02-.3.04-.65.11-1.03.22-1.54.41-3.41,1.37-4.83,2.55-.7.59-1.32,1.23-1.77,1.86-.47.63-.74,1.23-.91,1.77-.03.13-.08.27-.09.39-.01.06-.03.13-.04.19,0,.06-.01.12-.02.18-.02.12,0,.24-.02.36h0c0,.17,0-.22,0-.17v.03s0,.05,0,.05v.11s.01.22.01.22c0,.14.01.29.02.43v.2s.03.11.03.11c0,.08.02.15.03.23,0,.08.01.15.02.22,0,.03,0,.08.02.14l.02.15c.03.2.06.4.09.59.03.19.08.39.12.59.33,1.54.78,2.85,1.13,3.74.17.45.33.79.43,1.03.1.24.15.36.15.36l-2.34.91Z"/>
      </g>
    </g>
  </g>
</svg>